<svg xmlns="http://www.w3.org/2000/svg" viewBox="0 0 500 500"><defs><style>.cls-1{fill:#0c0d18;}.cls-2{fill:#6c8393;stroke:#a74f9e;}.cls-11,.cls-2,.cls-6{stroke-miterlimit:10;}.cls-3{fill:#00a651;}.cls-4{fill:#f1f2f2;}.cls-5{fill:#808285;}.cls-11,.cls-6{fill:none;}.cls-6{stroke:#6d6e71;stroke-width:3px;}.cls-7{fill:#ed1a3b;}.cls-8{fill:#ffca14;}.cls-9{fill:#5dbb57;}.cls-10{fill:#23bcba;}.cls-11{stroke:#0c0d18;stroke-width:4px;}</style></defs><title>hackthepearl whole logo</title><g id="Layer_2" data-name="Layer 2"><rect class="cls-1" width="500" height="500"/></g><g id="Layer_1" data-name="Layer 1"><path class="cls-2" d="M252.64,313.7" transform="translate(0)"/><path class="cls-3" d="M223.43,97.9H222.1V91.55h1.33V90.29h2.67v1.26h1.33V97.9H226.1v1.27h-2.67Zm0,0h2.67V91.55h-2.67Z" transform="translate(0)"/><path class="cls-3" d="M232.32,97.9H231V91.55h1.33V90.29H235v1.26h1.34V97.9H235v1.27h-2.66Zm0,0H235V91.55h-2.66Z" transform="translate(0)"/><path class="cls-3" d="M241.2,97.9h-1.33V91.55h1.33V90.29h2.67v1.26h1.33V97.9h-1.33v1.27H241.2Zm0,0h2.67V91.55H241.2Z" transform="translate(0)"/><path class="cls-3" d="M250.09,99.17V92.82h-1.33V91.55h1.33V90.29h1.33v8.88Z" transform="translate(0)"/><path class="cls-3" d="M256.31,99.17V92.82H255V91.55h1.33V90.29h1.33v8.88Z" transform="translate(0)"/><path class="cls-3" d="M262.53,97.9H261.2V91.55h1.33V90.29h2.67v1.26h1.33V97.9H265.2v1.27h-2.67Zm0,0h2.67V91.55h-2.67Z" transform="translate(0)"/><path class="cls-3" d="M271.42,99.17V92.82h-1.33V91.55h1.33V90.29h1.33v8.88Z" transform="translate(0)"/><path class="cls-3" d="M277.64,99.17V92.82h-1.33V91.55h1.33V90.29H279v8.88Z" transform="translate(0)"/><path class="cls-3" d="M283.86,97.9h-1.33V91.55h1.33V90.29h2.67v1.26h1.33V97.9h-1.33v1.27h-2.67Zm0,0h2.67V91.55h-2.67Z" transform="translate(0)"/><path class="cls-3" d="M204.77,113.5h-1.33v-6.35h1.33v-1.26h2.66v1.26h1.33v6.35h-1.33v1.27h-2.66Zm0,0h2.66v-6.35h-2.66Z" transform="translate(0)"/><path class="cls-3" d="M213.65,113.5h-1.33v-6.35h1.33v-1.26h2.67v1.26h1.33v6.35h-1.33v1.27h-2.67Zm0,0h2.67v-6.35h-2.67Z" transform="translate(0)"/><path class="cls-3" d="M222.54,114.77v-6.35h-1.33v-1.27h1.33v-1.26h1.33v8.88Z" transform="translate(0)"/><path class="cls-3" d="M228.76,114.77v-6.35h-1.33v-1.27h1.33v-1.26h1.33v8.88Z" transform="translate(0)"/><path class="cls-3" d="M235,114.77v-6.35h-1.33v-1.27H235v-1.26h1.34v8.88Z" transform="translate(0)"/><path class="cls-3" d="M241.2,113.5h-1.33v-6.35h1.33v-1.26h2.67v1.26h1.33v6.35h-1.33v1.27H241.2Zm0,0h2.67v-6.35H241.2Z" transform="translate(0)"/><path class="cls-3" d="M250.09,114.77v-6.35h-1.33v-1.27h1.33v-1.26h1.33v8.88Z" transform="translate(0)"/><path class="cls-3" d="M256.31,114.77v-6.35H255v-1.27h1.33v-1.26h1.33v8.88Z" transform="translate(0)"/><path class="cls-3" d="M262.53,113.5H261.2v-6.35h1.33v-1.26h2.67v1.26h1.33v6.35H265.2v1.27h-2.67Zm0,0h2.67v-6.35h-2.67Z" transform="translate(0)"/><path class="cls-3" d="M271.42,113.5h-1.33v-6.35h1.33v-1.26h2.66v1.26h1.34v6.35h-1.34v1.27h-2.66Zm0,0h2.66v-6.35h-2.66Z" transform="translate(0)"/><path class="cls-3" d="M280.3,114.77v-6.35H279v-1.27h1.33v-1.26h1.34v8.88Z" transform="translate(0)"/><path class="cls-3" d="M286.52,114.77v-6.35h-1.33v-1.27h1.33v-1.26h1.34v8.88Z" transform="translate(0)"/><path class="cls-3" d="M292.75,113.5h-1.34v-6.35h1.34v-1.26h2.66v1.26h1.33v6.35h-1.33v1.27h-2.66Zm0,0h2.66v-6.35h-2.66Z" transform="translate(0)"/><path class="cls-3" d="M149.67,130.37V124h-1.33v-1.27h1.33v-1.27H151v8.89Z" transform="translate(0)"/><path class="cls-3" d="M155.89,130.37V124h-1.33v-1.27h1.33v-1.27h1.33v8.89Z" transform="translate(0)"/><path class="cls-3" d="M162.11,129.1h-1.33v-6.35h1.33v-1.27h2.67v1.27h1.33v6.35h-1.33v1.27h-2.67Zm0,0h2.67v-6.35h-2.67Z" transform="translate(0)"/><path class="cls-3" d="M171,129.1h-1.33v-6.35H171v-1.27h2.66v1.27H175v6.35h-1.33v1.27H171Zm0,0h2.66v-6.35H171Z" transform="translate(0)"/><path class="cls-3" d="M179.88,130.37V124h-1.33v-1.27h1.33v-1.27h1.34v8.89Z" transform="translate(0)"/><path class="cls-3" d="M186.1,130.37V124h-1.33v-1.27h1.33v-1.27h1.34v8.89Z" transform="translate(0)"/><path class="cls-3" d="M192.33,129.1H191v-6.35h1.34v-1.27H195v1.27h1.33v6.35H195v1.27h-2.66Zm0,0H195v-6.35h-2.66Z" transform="translate(0)"/><path class="cls-3" d="M201.21,129.1h-1.33v-6.35h1.33v-1.27h2.67v1.27h1.33v6.35h-1.33v1.27h-2.67Zm0,0h2.67v-6.35h-2.67Z" transform="translate(0)"/><path class="cls-3" d="M210.1,130.37V124h-1.33v-1.27h1.33v-1.27h1.33v8.89Z" transform="translate(0)"/><path class="cls-3" d="M216.32,129.1H215v-6.35h1.33v-1.27H219v1.27h1.34v6.35H219v1.27h-2.66Zm0,0H219v-6.35h-2.66Z" transform="translate(0)"/><path class="cls-3" d="M225.21,129.1h-1.34v-6.35h1.34v-1.27h2.66v1.27h1.33v6.35h-1.33v1.27h-2.66Zm0,0h2.66v-6.35h-2.66Z" transform="translate(0)"/><path class="cls-3" d="M234.09,129.1h-1.33v-6.35h1.33v-1.27h2.67v1.27h1.33v6.35h-1.33v1.27h-2.67Zm0,0h2.67v-6.35h-2.67Z" transform="translate(0)"/><path class="cls-3" d="M243,129.1h-1.34v-6.35H243v-1.27h2.66v1.27H247v6.35h-1.33v1.27H243Zm0,0h2.66v-6.35H243Z" transform="translate(0)"/><path class="cls-3" d="M251.86,129.1h-1.33v-6.35h1.33v-1.27h2.67v1.27h1.33v6.35h-1.33v1.27h-2.67Zm0,0h2.67v-6.35h-2.67Z" transform="translate(0)"/><path class="cls-3" d="M260.75,129.1h-1.33v-6.35h1.33v-1.27h2.66v1.27h1.34v6.35h-1.34v1.27h-2.66Zm0,0h2.66v-6.35h-2.66Z" transform="translate(0)"/><path class="cls-3" d="M269.63,130.37V124H268.3v-1.27h1.33v-1.27H271v8.89Z" transform="translate(0)"/><path class="cls-3" d="M275.86,130.37V124h-1.34v-1.27h1.34v-1.27h1.33v8.89Z" transform="translate(0)"/><path class="cls-3" d="M282.08,129.1h-1.33v-6.35h1.33v-1.27h2.66v1.27h1.34v6.35h-1.34v1.27h-2.66Zm0,0h2.66v-6.35h-2.66Z" transform="translate(0)"/><path class="cls-3" d="M291,129.1h-1.33v-6.35H291v-1.27h2.67v1.27H295v6.35h-1.33v1.27H291Zm0,0h2.67v-6.35H291Z" transform="translate(0)"/><path class="cls-3" d="M299.85,129.1h-1.33v-6.35h1.33v-1.27h2.66v1.27h1.34v6.35h-1.34v1.27h-2.66Zm0,0h2.66v-6.35h-2.66Z" transform="translate(0)"/><path class="cls-3" d="M308.74,129.1H307.4v-6.35h1.34v-1.27h2.66v1.27h1.33v6.35H311.4v1.27h-2.66Zm0,0h2.66v-6.35h-2.66Z" transform="translate(0)"/><path class="cls-3" d="M317.62,130.37V124h-1.33v-1.27h1.33v-1.27H319v8.89Z" transform="translate(0)"/><path class="cls-3" d="M323.84,129.1h-1.33v-6.35h1.33v-1.27h2.67v1.27h1.33v6.35h-1.33v1.27h-2.67Zm0,0h2.67v-6.35h-2.67Z" transform="translate(0)"/><path class="cls-3" d="M332.73,129.1H331.4v-6.35h1.33v-1.27h2.66v1.27h1.34v6.35h-1.34v1.27h-2.66Zm0,0h2.66v-6.35h-2.66Z" transform="translate(0)"/><path class="cls-3" d="M341.61,130.37V124h-1.33v-1.27h1.33v-1.27H343v8.89Z" transform="translate(0)"/><path class="cls-3" d="M347.83,129.1H346.5v-6.35h1.33v-1.27h2.67v1.27h1.33v6.35H350.5v1.27h-2.67Zm0,0h2.67v-6.35h-2.67Z" transform="translate(0)"/><path class="cls-3" d="M144.34,144.7H143v-6.35h1.33v-1.27H147v1.27h1.34v6.35H147V146h-2.66Zm0,0H147v-6.35h-2.66Z" transform="translate(0)"/><path class="cls-3" d="M153.23,144.7h-1.34v-6.35h1.34v-1.27h2.66v1.27h1.33v6.35h-1.33V146h-2.66Zm0,0h2.66v-6.35h-2.66Z" transform="translate(0)"/><path class="cls-3" d="M162.11,146v-6.35h-1.33v-1.27h1.33v-1.27h1.33V146Z" transform="translate(0)"/><path class="cls-3" d="M168.33,144.7H167v-6.35h1.33v-1.27H171v1.27h1.33v6.35H171V146h-2.67Zm0,0H171v-6.35h-2.67Z" transform="translate(0)"/><path class="cls-3" d="M177.22,146v-6.35h-1.33v-1.27h1.33v-1.27h1.33V146Z" transform="translate(0)"/><path class="cls-3" d="M183.44,144.7h-1.33v-6.35h1.33v-1.27h2.66v1.27h1.34v6.35H186.1V146h-2.66Zm0,0h2.66v-6.35h-2.66Z" transform="translate(0)"/><path class="cls-3" d="M192.33,146v-6.35H191v-1.27h1.34v-1.27h1.33V146Z" transform="translate(0)"/><path class="cls-3" d="M198.55,146v-6.35h-1.34v-1.27h1.34v-1.27h1.33V146Z" transform="translate(0)"/><path class="cls-3" d="M204.77,144.7h-1.33v-6.35h1.33v-1.27h2.66v1.27h1.33v6.35h-1.33V146h-2.66Zm0,0h2.66v-6.35h-2.66Z" transform="translate(0)"/><path class="cls-3" d="M213.65,146v-6.35h-1.33v-1.27h1.33v-1.27H215V146Z" transform="translate(0)"/><path class="cls-3" d="M219.88,146v-6.35h-1.34v-1.27h1.34v-1.27h1.33V146Z" transform="translate(0)"/><path class="cls-3" d="M226.1,146v-6.35h-1.34v-1.27h1.34v-1.27h1.33V146Z" transform="translate(0)"/><path class="cls-3" d="M232.32,144.7H231v-6.35h1.33v-1.27H235v1.27h1.34v6.35H235V146h-2.66Zm0,0H235v-6.35h-2.66Z" transform="translate(0)"/><path class="cls-3" d="M241.2,144.7h-1.33v-6.35h1.33v-1.27h2.67v1.27h1.33v6.35h-1.33V146H241.2Zm0,0h2.67v-6.35H241.2Z" transform="translate(0)"/><path class="cls-3" d="M250.09,146v-6.35h-1.33v-1.27h1.33v-1.27h1.33V146Z" transform="translate(0)"/><path class="cls-3" d="M256.31,146v-6.35H255v-1.27h1.33v-1.27h1.33V146Z" transform="translate(0)"/><path class="cls-3" d="M262.53,144.7H261.2v-6.35h1.33v-1.27h2.67v1.27h1.33v6.35H265.2V146h-2.67Zm0,0h2.67v-6.35h-2.67Z" transform="translate(0)"/><path class="cls-3" d="M271.42,144.7h-1.33v-6.35h1.33v-1.27h2.66v1.27h1.34v6.35h-1.34V146h-2.66Zm0,0h2.66v-6.35h-2.66Z" transform="translate(0)"/><path class="cls-3" d="M280.3,146v-6.35H279v-1.27h1.33v-1.27h1.34V146Z" transform="translate(0)"/><path class="cls-3" d="M286.52,144.7h-1.33v-6.35h1.33v-1.27h2.67v1.27h1.33v6.35h-1.33V146h-2.67Zm0,0h2.67v-6.35h-2.67Z" transform="translate(0)"/><path class="cls-3" d="M295.41,146v-6.35h-1.33v-1.27h1.33v-1.27h1.33V146Z" transform="translate(0)"/><path class="cls-3" d="M301.63,144.7H300.3v-6.35h1.33v-1.27h2.67v1.27h1.33v6.35H304.3V146h-2.67Zm0,0h2.67v-6.35h-2.67Z" transform="translate(0)"/><path class="cls-3" d="M310.52,146v-6.35h-1.33v-1.27h1.33v-1.27h1.33V146Z" transform="translate(0)"/><path class="cls-3" d="M316.74,146v-6.35h-1.33v-1.27h1.33v-1.27h1.33V146Z" transform="translate(0)"/><path class="cls-3" d="M323,146v-6.35h-1.33v-1.27H323v-1.27h1.33V146Z" transform="translate(0)"/><path class="cls-3" d="M329.18,144.7h-1.33v-6.35h1.33v-1.27h2.67v1.27h1.33v6.35h-1.33V146h-2.67Zm0,0h2.67v-6.35h-2.67Z" transform="translate(0)"/><path class="cls-3" d="M338.07,144.7h-1.33v-6.35h1.33v-1.27h2.66v1.27h1.34v6.35h-1.34V146h-2.66Zm0,0h2.66v-6.35h-2.66Z" transform="translate(0)"/><path class="cls-3" d="M347,146v-6.35h-1.33v-1.27H347v-1.27h1.34V146Z" transform="translate(0)"/><path class="cls-3" d="M353.17,144.7h-1.33v-6.35h1.33v-1.27h2.67v1.27h1.33v6.35h-1.33V146h-2.67Zm0,0h2.67v-6.35h-2.67Z" transform="translate(0)"/><path class="cls-3" d="M362.06,144.7h-1.33v-6.35h1.33v-1.27h2.67v1.27h1.33v6.35h-1.33V146h-2.67Zm0,0h2.67v-6.35h-2.67Z" transform="translate(0)"/><path class="cls-3" d="M140.78,161.57v-6.35h-1.33V154h1.33v-1.26h1.34v8.88Z" transform="translate(0)"/><path class="cls-3" d="M147,161.57v-6.35h-1.33V154H147v-1.26h1.34v8.88Z" transform="translate(0)"/><path class="cls-3" d="M153.23,160.3h-1.34V154h1.34v-1.26h2.66V154h1.33v6.35h-1.33v1.27h-2.66Zm0,0h2.66V154h-2.66Z" transform="translate(0)"/><path class="cls-3" d="M162.11,160.3h-1.33V154h1.33v-1.26h2.67V154h1.33v6.35h-1.33v1.27h-2.67Zm0,0h2.67V154h-2.67Z" transform="translate(0)"/><path class="cls-3" d="M171,161.57v-6.35h-1.33V154H171v-1.26h1.33v8.88Z" transform="translate(0)"/><path class="cls-3" d="M177.22,160.3h-1.33V154h1.33v-1.26h2.66V154h1.34v6.35h-1.34v1.27h-2.66Zm0,0h2.66V154h-2.66Z" transform="translate(0)"/><path class="cls-3" d="M186.1,160.3h-1.33V154h1.33v-1.26h2.67V154h1.33v6.35h-1.33v1.27H186.1Zm0,0h2.67V154H186.1Z" transform="translate(0)"/><path class="cls-3" d="M195,160.3h-1.33V154H195v-1.26h2.67V154H199v6.35h-1.33v1.27H195Zm0,0h2.67V154H195Z" transform="translate(0)"/><path class="cls-3" d="M203.88,160.3h-1.34V154h1.34v-1.26h2.66V154h1.33v6.35h-1.33v1.27h-2.66Zm0,0h2.66V154h-2.66Z" transform="translate(0)"/><path class="cls-3" d="M212.76,160.3h-1.33V154h1.33v-1.26h2.67V154h1.33v6.35h-1.33v1.27h-2.67Zm0,0h2.67V154h-2.67Z" transform="translate(0)"/><path class="cls-3" d="M221.65,160.3h-1.33V154h1.33v-1.26h2.66V154h1.34v6.35h-1.34v1.27h-2.66Zm0,0h2.66V154h-2.66Z" transform="translate(0)"/><path class="cls-3" d="M230.53,161.57v-6.35H229.2V154h1.33v-1.26h1.34v8.88Z" transform="translate(0)"/><path class="cls-3" d="M236.76,161.57v-6.35h-1.34V154h1.34v-1.26h1.33v8.88Z" transform="translate(0)"/><path class="cls-3" d="M243,161.57v-6.35h-1.34V154H243v-1.26h1.33v8.88Z" transform="translate(0)"/><path class="cls-3" d="M249.2,160.3h-1.33V154h1.33v-1.26h2.66V154h1.34v6.35h-1.34v1.27H249.2Zm0,0h2.66V154H249.2Z" transform="translate(0)"/><path class="cls-3" d="M258.08,160.3h-1.33V154h1.33v-1.26h2.67V154h1.33v6.35h-1.33v1.27h-2.67Zm0,0h2.67V154h-2.67Z" transform="translate(0)"/><path class="cls-3" d="M267,160.3h-1.33V154H267v-1.26h2.66V154H271v6.35h-1.34v1.27H267Zm0,0h2.66V154H267Z" transform="translate(0)"/><path class="cls-3" d="M275.86,160.3h-1.34V154h1.34v-1.26h2.66V154h1.33v6.35h-1.33v1.27h-2.66Zm0,0h2.66V154h-2.66Z" transform="translate(0)"/><path class="cls-3" d="M284.74,160.3h-1.33V154h1.33v-1.26h2.67V154h1.33v6.35h-1.33v1.27h-2.67Zm0,0h2.67V154h-2.67Z" transform="translate(0)"/><path class="cls-3" d="M293.63,161.57v-6.35H292.3V154h1.33v-1.26H295v8.88Z" transform="translate(0)"/><path class="cls-3" d="M299.85,161.57v-6.35h-1.33V154h1.33v-1.26h1.33v8.88Z" transform="translate(0)"/><path class="cls-3" d="M306.07,160.3h-1.33V154h1.33v-1.26h2.67V154h1.33v6.35h-1.33v1.27h-2.67Zm0,0h2.67V154h-2.67Z" transform="translate(0)"/><path class="cls-3" d="M315,161.57v-6.35h-1.34V154H315v-1.26h1.33v8.88Z" transform="translate(0)"/><path class="cls-3" d="M321.18,161.57v-6.35h-1.33V154h1.33v-1.26h1.33v8.88Z" transform="translate(0)"/><path class="cls-3" d="M327.4,160.3h-1.33V154h1.33v-1.26h2.66V154h1.34v6.35h-1.34v1.27H327.4Zm0,0h2.66V154H327.4Z" transform="translate(0)"/><path class="cls-3" d="M336.28,160.3H335V154h1.33v-1.26H339V154h1.33v6.35H339v1.27h-2.67Zm0,0H339V154h-2.67Z" transform="translate(0)"/><path class="cls-3" d="M345.17,160.3h-1.33V154h1.33v-1.26h2.67V154h1.33v6.35h-1.33v1.27h-2.67Zm0,0h2.67V154h-2.67Z" transform="translate(0)"/><path class="cls-3" d="M354.06,161.57v-6.35h-1.34V154h1.34v-1.26h1.33v8.88Z" transform="translate(0)"/><path class="cls-3" d="M360.28,161.57v-6.35H359V154h1.33v-1.26h1.33v8.88Z" transform="translate(0)"/><path class="cls-3" d="M366.5,160.3h-1.33V154h1.33v-1.26h2.66V154h1.34v6.35h-1.34v1.27H366.5Zm0,0h2.66V154H366.5Z" transform="translate(0)"/><path class="cls-3" d="M125.68,177.17v-6.35h-1.34v-1.27h1.34v-1.26H127v8.88Z" transform="translate(0)"/><path class="cls-3" d="M131.9,175.9h-1.34v-6.35h1.34v-1.26h2.66v1.26h1.33v6.35h-1.33v1.27H131.9Zm0,0h2.66v-6.35H131.9Z" transform="translate(0)"/><path class="cls-3" d="M140.78,177.17v-6.35h-1.33v-1.27h1.33v-1.26h1.34v8.88Z" transform="translate(0)"/><path class="cls-3" d="M147,177.17v-6.35h-1.33v-1.27H147v-1.26h1.34v8.88Z" transform="translate(0)"/><path class="cls-3" d="M153.23,175.9h-1.34v-6.35h1.34v-1.26h2.66v1.26h1.33v6.35h-1.33v1.27h-2.66Zm0,0h2.66v-6.35h-2.66Z" transform="translate(0)"/><path class="cls-3" d="M162.11,175.9h-1.33v-6.35h1.33v-1.26h2.67v1.26h1.33v6.35h-1.33v1.27h-2.67Zm0,0h2.67v-6.35h-2.67Z" transform="translate(0)"/><path class="cls-3" d="M171,177.17v-6.35h-1.33v-1.27H171v-1.26h1.33v8.88Z" transform="translate(0)"/><path class="cls-3" d="M177.22,175.9h-1.33v-6.35h1.33v-1.26h2.66v1.26h1.34v6.35h-1.34v1.27h-2.66Zm0,0h2.66v-6.35h-2.66Z" transform="translate(0)"/><path class="cls-3" d="M186.1,177.17v-6.35h-1.33v-1.27h1.33v-1.26h1.34v8.88Z" transform="translate(0)"/><path class="cls-3" d="M192.33,175.9H191v-6.35h1.34v-1.26H195v1.26h1.33v6.35H195v1.27h-2.66Zm0,0H195v-6.35h-2.66Z" transform="translate(0)"/><path class="cls-3" d="M201.21,177.17v-6.35h-1.33v-1.27h1.33v-1.26h1.33v8.88Z" transform="translate(0)"/><path class="cls-3" d="M207.43,177.17v-6.35H206.1v-1.27h1.33v-1.26h1.34v8.88Z" transform="translate(0)"/><path class="cls-3" d="M213.65,175.9h-1.33v-6.35h1.33v-1.26h2.67v1.26h1.33v6.35h-1.33v1.27h-2.67Zm0,0h2.67v-6.35h-2.67Z" transform="translate(0)"/><path class="cls-3" d="M222.54,177.17v-6.35h-1.33v-1.27h1.33v-1.26h1.33v8.88Z" transform="translate(0)"/><path class="cls-3" d="M228.76,175.9h-1.33v-6.35h1.33v-1.26h2.67v1.26h1.33v6.35h-1.33v1.27h-2.67Zm0,0h2.67v-6.35h-2.67Z" transform="translate(0)"/><path class="cls-3" d="M237.65,175.9h-1.33v-6.35h1.33v-1.26h2.66v1.26h1.34v6.35h-1.34v1.27h-2.66Zm0,0h2.66v-6.35h-2.66Z" transform="translate(0)"/><path class="cls-3" d="M246.53,175.9H245.2v-6.35h1.33v-1.26h2.67v1.26h1.33v6.35H249.2v1.27h-2.67Zm0,0h2.67v-6.35h-2.67Z" transform="translate(0)"/><path class="cls-3" d="M255.42,175.9h-1.33v-6.35h1.33v-1.26h2.66v1.26h1.34v6.35h-1.34v1.27h-2.66Zm0,0h2.66v-6.35h-2.66Z" transform="translate(0)"/><path class="cls-3" d="M264.3,177.17v-6.35H263v-1.27h1.33v-1.26h1.34v8.88Z" transform="translate(0)"/><path class="cls-3" d="M270.53,177.17v-6.35h-1.34v-1.27h1.34v-1.26h1.33v8.88Z" transform="translate(0)"/><path class="cls-3" d="M276.75,175.9h-1.33v-6.35h1.33v-1.26h2.66v1.26h1.34v6.35h-1.34v1.27h-2.66Zm0,0h2.66v-6.35h-2.66Z" transform="translate(0)"/><path class="cls-3" d="M285.63,177.17v-6.35H284.3v-1.27h1.33v-1.26H287v8.88Z" transform="translate(0)"/><path class="cls-3" d="M291.85,177.17v-6.35h-1.33v-1.27h1.33v-1.26h1.34v8.88Z" transform="translate(0)"/><path class="cls-3" d="M298.08,177.17v-6.35h-1.34v-1.27h1.34v-1.26h1.33v8.88Z" transform="translate(0)"/><path class="cls-3" d="M304.3,177.17v-6.35H303v-1.27h1.34v-1.26h1.33v8.88Z" transform="translate(0)"/><path class="cls-3" d="M310.52,175.9h-1.33v-6.35h1.33v-1.26h2.66v1.26h1.34v6.35h-1.34v1.27h-2.66Zm0,0h2.66v-6.35h-2.66Z" transform="translate(0)"/><path class="cls-3" d="M319.4,177.17v-6.35h-1.33v-1.27h1.33v-1.26h1.34v8.88Z" transform="translate(0)"/><path class="cls-3" d="M325.63,177.17v-6.35h-1.34v-1.27h1.34v-1.26H327v8.88Z" transform="translate(0)"/><path class="cls-3" d="M331.85,175.9h-1.34v-6.35h1.34v-1.26h2.66v1.26h1.33v6.35h-1.33v1.27h-2.66Zm0,0h2.66v-6.35h-2.66Z" transform="translate(0)"/><path class="cls-3" d="M340.73,177.17v-6.35H339.4v-1.27h1.33v-1.26h1.34v8.88Z" transform="translate(0)"/><path class="cls-3" d="M347,177.17v-6.35h-1.33v-1.27H347v-1.26h1.34v8.88Z" transform="translate(0)"/><path class="cls-3" d="M353.17,175.9h-1.33v-6.35h1.33v-1.26h2.67v1.26h1.33v6.35h-1.33v1.27h-2.67Zm0,0h2.67v-6.35h-2.67Z" transform="translate(0)"/><path class="cls-3" d="M362.06,175.9h-1.33v-6.35h1.33v-1.26h2.67v1.26h1.33v6.35h-1.33v1.27h-2.67Zm0,0h2.67v-6.35h-2.67Z" transform="translate(0)"/><path class="cls-3" d="M371,175.9h-1.34v-6.35H371v-1.26h2.66v1.26h1.33v6.35h-1.33v1.27H371Zm0,0h2.66v-6.35H371Z" transform="translate(0)"/><path class="cls-3" d="M104.35,191.5H103v-6.35h1.33v-1.26H107v1.26h1.33v6.35H107v1.27h-2.66Zm0,0H107v-6.35h-2.66Z" transform="translate(0)"/><path class="cls-3" d="M113.23,192.77v-6.35H111.9v-1.27h1.33v-1.26h1.34v8.88Z" transform="translate(0)"/><path class="cls-3" d="M119.46,192.77v-6.35h-1.34v-1.27h1.34v-1.26h1.33v8.88Z" transform="translate(0)"/><path class="cls-3" d="M125.68,191.5h-1.34v-6.35h1.34v-1.26h2.66v1.26h1.33v6.35h-1.33v1.27h-2.66Zm0,0h2.66v-6.35h-2.66Z" transform="translate(0)"/><path class="cls-3" d="M134.56,191.5h-1.33v-6.35h1.33v-1.26h2.67v1.26h1.33v6.35h-1.33v1.27h-2.67Zm0,0h2.67v-6.35h-2.67Z" transform="translate(0)"/><path class="cls-3" d="M143.45,192.77v-6.35h-1.33v-1.27h1.33v-1.26h1.33v8.88Z" transform="translate(0)"/><path class="cls-3" d="M149.67,191.5h-1.33v-6.35h1.33v-1.26h2.66v1.26h1.34v6.35h-1.34v1.27h-2.66Zm0,0h2.66v-6.35h-2.66Z" transform="translate(0)"/><path class="cls-3" d="M158.56,192.77v-6.35h-1.34v-1.27h1.34v-1.26h1.33v8.88Z" transform="translate(0)"/><path class="cls-3" d="M164.78,191.5h-1.34v-6.35h1.34v-1.26h2.66v1.26h1.33v6.35h-1.33v1.27h-2.66Zm0,0h2.66v-6.35h-2.66Z" transform="translate(0)"/><path class="cls-3" d="M173.66,192.77v-6.35h-1.33v-1.27h1.33v-1.26H175v8.88Z" transform="translate(0)"/><path class="cls-3" d="M179.88,192.77v-6.35h-1.33v-1.27h1.33v-1.26h1.34v8.88Z" transform="translate(0)"/><path class="cls-3" d="M186.1,192.77v-6.35h-1.33v-1.27h1.33v-1.26h1.34v8.88Z" transform="translate(0)"/><path class="cls-3" d="M192.33,191.5H191v-6.35h1.34v-1.26H195v1.26h1.33v6.35H195v1.27h-2.66Zm0,0H195v-6.35h-2.66Z" transform="translate(0)"/><path class="cls-3" d="M201.21,191.5h-1.33v-6.35h1.33v-1.26h2.67v1.26h1.33v6.35h-1.33v1.27h-2.67Zm0,0h2.67v-6.35h-2.67Z" transform="translate(0)"/><path class="cls-3" d="M210.1,192.77v-6.35h-1.33v-1.27h1.33v-1.26h1.33v8.88Z" transform="translate(0)"/><path class="cls-3" d="M216.32,191.5H215v-6.35h1.33v-1.26H219v1.26h1.34v6.35H219v1.27h-2.66Zm0,0H219v-6.35h-2.66Z" transform="translate(0)"/><path class="cls-3" d="M225.21,191.5h-1.34v-6.35h1.34v-1.26h2.66v1.26h1.33v6.35h-1.33v1.27h-2.66Zm0,0h2.66v-6.35h-2.66Z" transform="translate(0)"/><path class="cls-3" d="M234.09,191.5h-1.33v-6.35h1.33v-1.26h2.67v1.26h1.33v6.35h-1.33v1.27h-2.67Zm0,0h2.67v-6.35h-2.67Z" transform="translate(0)"/><path class="cls-3" d="M243,192.77v-6.35h-1.34v-1.27H243v-1.26h1.33v8.88Z" transform="translate(0)"/><path class="cls-3" d="M249.2,191.5h-1.33v-6.35h1.33v-1.26h2.66v1.26h1.34v6.35h-1.34v1.27H249.2Zm0,0h2.66v-6.35H249.2Z" transform="translate(0)"/><path class="cls-3" d="M258.08,191.5h-1.33v-6.35h1.33v-1.26h2.67v1.26h1.33v6.35h-1.33v1.27h-2.67Zm0,0h2.67v-6.35h-2.67Z" transform="translate(0)"/><path class="cls-3" d="M267,191.5h-1.33v-6.35H267v-1.26h2.66v1.26H271v6.35h-1.34v1.27H267Zm0,0h2.66v-6.35H267Z" transform="translate(0)"/><path class="cls-3" d="M275.86,191.5h-1.34v-6.35h1.34v-1.26h2.66v1.26h1.33v6.35h-1.33v1.27h-2.66Zm0,0h2.66v-6.35h-2.66Z" transform="translate(0)"/><path class="cls-3" d="M284.74,191.5h-1.33v-6.35h1.33v-1.26h2.67v1.26h1.33v6.35h-1.33v1.27h-2.67Zm0,0h2.67v-6.35h-2.67Z" transform="translate(0)"/><path class="cls-3" d="M293.63,191.5H292.3v-6.35h1.33v-1.26h2.66v1.26h1.34v6.35h-1.34v1.27h-2.66Zm0,0h2.66v-6.35h-2.66Z" transform="translate(0)"/><path class="cls-3" d="M302.51,192.77v-6.35h-1.33v-1.27h1.33v-1.26h1.34v8.88Z" transform="translate(0)"/><path class="cls-3" d="M308.74,192.77v-6.35H307.4v-1.27h1.34v-1.26h1.33v8.88Z" transform="translate(0)"/><path class="cls-3" d="M315,191.5h-1.34v-6.35H315v-1.26h2.66v1.26H319v6.35h-1.33v1.27H315Zm0,0h2.66v-6.35H315Z" transform="translate(0)"/><path class="cls-3" d="M323.84,191.5h-1.33v-6.35h1.33v-1.26h2.67v1.26h1.33v6.35h-1.33v1.27h-2.67Zm0,0h2.67v-6.35h-2.67Z" transform="translate(0)"/><path class="cls-3" d="M332.73,192.77v-6.35H331.4v-1.27h1.33v-1.26h1.33v8.88Z" transform="translate(0)"/><path class="cls-3" d="M339,192.77v-6.35h-1.33v-1.27H339v-1.26h1.33v8.88Z" transform="translate(0)"/><path class="cls-3" d="M345.17,191.5h-1.33v-6.35h1.33v-1.26h2.67v1.26h1.33v6.35h-1.33v1.27h-2.67Zm0,0h2.67v-6.35h-2.67Z" transform="translate(0)"/><path class="cls-3" d="M354.06,191.5h-1.34v-6.35h1.34v-1.26h2.66v1.26h1.33v6.35h-1.33v1.27h-2.66Zm0,0h2.66v-6.35h-2.66Z" transform="translate(0)"/><path class="cls-3" d="M362.94,192.77v-6.35h-1.33v-1.27h1.33v-1.26h1.34v8.88Z" transform="translate(0)"/><path class="cls-3" d="M369.16,192.77v-6.35h-1.33v-1.27h1.33v-1.26h1.34v8.88Z" transform="translate(0)"/><path class="cls-3" d="M375.38,191.5h-1.33v-6.35h1.33v-1.26h2.67v1.26h1.33v6.35h-1.33v1.27h-2.67Zm0,0h2.67v-6.35h-2.67Z" transform="translate(0)"/><path class="cls-3" d="M384.27,192.77v-6.35h-1.33v-1.27h1.33v-1.26h1.33v8.88Z" transform="translate(0)"/><path class="cls-3" d="M390.49,192.77v-6.35h-1.33v-1.27h1.33v-1.26h1.34v8.88Z" transform="translate(0)"/><path class="cls-3" d="M396.71,192.77v-6.35h-1.33v-1.27h1.33v-1.26h1.34v8.88Z" transform="translate(0)"/><path class="cls-3" d="M107.9,207.1h-1.33v-6.35h1.33v-1.27h2.67v1.27h1.33v6.35h-1.33v1.27H107.9Zm0,0h2.67v-6.35H107.9Z" transform="translate(0)"/><path class="cls-3" d="M116.79,208.37V202h-1.33v-1.27h1.33v-1.27h1.33v8.89Z" transform="translate(0)"/><path class="cls-3" d="M123,207.1h-1.33v-6.35H123v-1.27h2.67v1.27H127v6.35h-1.33v1.27H123Zm0,0h2.67v-6.35H123Z" transform="translate(0)"/><path class="cls-3" d="M131.9,207.1h-1.34v-6.35h1.34v-1.27h2.66v1.27h1.33v6.35h-1.33v1.27H131.9Zm0,0h2.66v-6.35H131.9Z" transform="translate(0)"/><path class="cls-3" d="M140.78,207.1h-1.33v-6.35h1.33v-1.27h2.67v1.27h1.33v6.35h-1.33v1.27h-2.67Zm0,0h2.67v-6.35h-2.67Z" transform="translate(0)"/><path class="cls-3" d="M149.67,208.37V202h-1.33v-1.27h1.33v-1.27H151v8.89Z" transform="translate(0)"/><path class="cls-3" d="M155.89,207.1h-1.33v-6.35h1.33v-1.27h2.67v1.27h1.33v6.35h-1.33v1.27h-2.67Zm0,0h2.67v-6.35h-2.67Z" transform="translate(0)"/><path class="cls-3" d="M164.78,207.1h-1.34v-6.35h1.34v-1.27h2.66v1.27h1.33v6.35h-1.33v1.27h-2.66Zm0,0h2.66v-6.35h-2.66Z" transform="translate(0)"/><path class="cls-3" d="M173.66,207.1h-1.33v-6.35h1.33v-1.27h2.67v1.27h1.33v6.35h-1.33v1.27h-2.67Zm0,0h2.67v-6.35h-2.67Z" transform="translate(0)"/><path class="cls-3" d="M182.55,207.1h-1.33v-6.35h1.33v-1.27h2.66v1.27h1.34v6.35h-1.34v1.27h-2.66Zm0,0h2.66v-6.35h-2.66Z" transform="translate(0)"/><path class="cls-3" d="M191.43,207.1H190.1v-6.35h1.33v-1.27h2.67v1.27h1.33v6.35H194.1v1.27h-2.67Zm0,0h2.67v-6.35h-2.67Z" transform="translate(0)"/><path class="cls-3" d="M200.32,207.1H199v-6.35h1.33v-1.27H203v1.27h1.34v6.35H203v1.27h-2.66Zm0,0H203v-6.35h-2.66Z" transform="translate(0)"/><path class="cls-3" d="M209.21,208.37V202h-1.34v-1.27h1.34v-1.27h1.33v8.89Z" transform="translate(0)"/><path class="cls-3" d="M215.43,208.37V202h-1.34v-1.27h1.34v-1.27h1.33v8.89Z" transform="translate(0)"/><path class="cls-3" d="M221.65,207.1h-1.33v-6.35h1.33v-1.27h2.66v1.27h1.34v6.35h-1.34v1.27h-2.66Zm0,0h2.66v-6.35h-2.66Z" transform="translate(0)"/><path class="cls-3" d="M230.53,207.1H229.2v-6.35h1.33v-1.27h2.67v1.27h1.33v6.35H233.2v1.27h-2.67Zm0,0h2.67v-6.35h-2.67Z" transform="translate(0)"/><path class="cls-3" d="M239.42,207.1h-1.33v-6.35h1.33v-1.27h2.66v1.27h1.34v6.35h-1.34v1.27h-2.66Zm0,0h2.66v-6.35h-2.66Z" transform="translate(0)"/><path class="cls-3" d="M248.31,208.37V202H247v-1.27h1.34v-1.27h1.33v8.89Z" transform="translate(0)"/><path class="cls-3" d="M254.53,207.1H253.2v-6.35h1.33v-1.27h2.66v1.27h1.34v6.35h-1.34v1.27h-2.66Zm0,0h2.66v-6.35h-2.66Z" transform="translate(0)"/><path class="cls-3" d="M263.41,207.1h-1.33v-6.35h1.33v-1.27h2.67v1.27h1.33v6.35h-1.33v1.27h-2.67Zm0,0h2.67v-6.35h-2.67Z" transform="translate(0)"/><path class="cls-3" d="M272.3,208.37V202H271v-1.27h1.33v-1.27h1.33v8.89Z" transform="translate(0)"/><path class="cls-3" d="M278.52,208.37V202h-1.33v-1.27h1.33v-1.27h1.33v8.89Z" transform="translate(0)"/><path class="cls-3" d="M284.74,207.1h-1.33v-6.35h1.33v-1.27h2.67v1.27h1.33v6.35h-1.33v1.27h-2.67Zm0,0h2.67v-6.35h-2.67Z" transform="translate(0)"/><path class="cls-3" d="M293.63,208.37V202H292.3v-1.27h1.33v-1.27H295v8.89Z" transform="translate(0)"/><path class="cls-3" d="M299.85,207.1h-1.33v-6.35h1.33v-1.27h2.66v1.27h1.34v6.35h-1.34v1.27h-2.66Zm0,0h2.66v-6.35h-2.66Z" transform="translate(0)"/><path class="cls-3" d="M308.74,207.1H307.4v-6.35h1.34v-1.27h2.66v1.27h1.33v6.35H311.4v1.27h-2.66Zm0,0h2.66v-6.35h-2.66Z" transform="translate(0)"/><path class="cls-3" d="M317.62,208.37V202h-1.33v-1.27h1.33v-1.27H319v8.89Z" transform="translate(0)"/><path class="cls-3" d="M323.84,207.1h-1.33v-6.35h1.33v-1.27h2.67v1.27h1.33v6.35h-1.33v1.27h-2.67Zm0,0h2.67v-6.35h-2.67Z" transform="translate(0)"/><path class="cls-3" d="M332.73,208.37V202H331.4v-1.27h1.33v-1.27h1.33v8.89Z" transform="translate(0)"/><path class="cls-3" d="M339,208.37V202h-1.33v-1.27H339v-1.27h1.33v8.89Z" transform="translate(0)"/><path class="cls-3" d="M345.17,207.1h-1.33v-6.35h1.33v-1.27h2.67v1.27h1.33v6.35h-1.33v1.27h-2.67Zm0,0h2.67v-6.35h-2.67Z" transform="translate(0)"/><path class="cls-3" d="M354.06,208.37V202h-1.34v-1.27h1.34v-1.27h1.33v8.89Z" transform="translate(0)"/><path class="cls-3" d="M360.28,208.37V202H359v-1.27h1.33v-1.27h1.33v8.89Z" transform="translate(0)"/><path class="cls-3" d="M366.5,208.37V202h-1.33v-1.27h1.33v-1.27h1.33v8.89Z" transform="translate(0)"/><path class="cls-3" d="M372.72,207.1h-1.33v-6.35h1.33v-1.27h2.66v1.27h1.34v6.35h-1.34v1.27h-2.66Zm0,0h2.66v-6.35h-2.66Z" transform="translate(0)"/><path class="cls-3" d="M381.61,207.1h-1.34v-6.35h1.34v-1.27h2.66v1.27h1.33v6.35h-1.33v1.27h-2.66Zm0,0h2.66v-6.35h-2.66Z" transform="translate(0)"/><path class="cls-3" d="M390.49,208.37V202h-1.33v-1.27h1.33v-1.27h1.34v8.89Z" transform="translate(0)"/><path class="cls-3" d="M396.71,208.37V202h-1.33v-1.27h1.33v-1.27h1.34v8.89Z" transform="translate(0)"/><path class="cls-3" d="M104.35,224v-6.35H103v-1.27h1.33v-1.27h1.33V224Z" transform="translate(0)"/><path class="cls-3" d="M110.57,222.7h-1.33v-6.35h1.33v-1.27h2.66v1.27h1.34v6.35h-1.34V224h-2.66Zm0,0h2.66v-6.35h-2.66Z" transform="translate(0)"/><path class="cls-3" d="M119.46,224v-6.35h-1.34v-1.27h1.34v-1.27h1.33V224Z" transform="translate(0)"/><path class="cls-3" d="M125.68,224v-6.35h-1.34v-1.27h1.34v-1.27H127V224Z" transform="translate(0)"/><path class="cls-3" d="M131.9,224v-6.35h-1.34v-1.27h1.34v-1.27h1.33V224Z" transform="translate(0)"/><path class="cls-3" d="M138.12,222.7h-1.33v-6.35h1.33v-1.27h2.66v1.27h1.34v6.35h-1.34V224h-2.66Zm0,0h2.66v-6.35h-2.66Z" transform="translate(0)"/><path class="cls-3" d="M147,222.7h-1.33v-6.35H147v-1.27h2.67v1.27H151v6.35h-1.33V224H147Zm0,0h2.67v-6.35H147Z" transform="translate(0)"/><path class="cls-3" d="M155.89,224v-6.35h-1.33v-1.27h1.33v-1.27h1.33V224Z" transform="translate(0)"/><path class="cls-3" d="M162.11,222.7h-1.33v-6.35h1.33v-1.27h2.67v1.27h1.33v6.35h-1.33V224h-2.67Zm0,0h2.67v-6.35h-2.67Z" transform="translate(0)"/><path class="cls-3" d="M171,222.7h-1.33v-6.35H171v-1.27h2.66v1.27H175v6.35h-1.33V224H171Zm0,0h2.66v-6.35H171Z" transform="translate(0)"/><path class="cls-3" d="M179.88,224v-6.35h-1.33v-1.27h1.33v-1.27h1.34V224Z" transform="translate(0)"/><path class="cls-3" d="M186.1,224v-6.35h-1.33v-1.27h1.33v-1.27h1.34V224Z" transform="translate(0)"/><path class="cls-3" d="M192.33,224v-6.35H191v-1.27h1.34v-1.27h1.33V224Z" transform="translate(0)"/><path class="cls-3" d="M198.55,224v-6.35h-1.34v-1.27h1.34v-1.27h1.33V224Z" transform="translate(0)"/><path class="cls-3" d="M204.77,222.7h-1.33v-6.35h1.33v-1.27h2.66v1.27h1.33v6.35h-1.33V224h-2.66Zm0,0h2.66v-6.35h-2.66Z" transform="translate(0)"/><path class="cls-3" d="M213.65,222.7h-1.33v-6.35h1.33v-1.27h2.67v1.27h1.33v6.35h-1.33V224h-2.67Zm0,0h2.67v-6.35h-2.67Z" transform="translate(0)"/><path class="cls-3" d="M222.54,224v-6.35h-1.33v-1.27h1.33v-1.27h1.33V224Z" transform="translate(0)"/><path class="cls-3" d="M228.76,222.7h-1.33v-6.35h1.33v-1.27h2.67v1.27h1.33v6.35h-1.33V224h-2.67Zm0,0h2.67v-6.35h-2.67Z" transform="translate(0)"/><path class="cls-3" d="M237.65,222.7h-1.33v-6.35h1.33v-1.27h2.66v1.27h1.34v6.35h-1.34V224h-2.66Zm0,0h2.66v-6.35h-2.66Z" transform="translate(0)"/><path class="cls-3" d="M246.53,224v-6.35H245.2v-1.27h1.33v-1.27h1.34V224Z" transform="translate(0)"/><path class="cls-3" d="M252.75,222.7h-1.33v-6.35h1.33v-1.27h2.67v1.27h1.33v6.35h-1.33V224h-2.67Zm0,0h2.67v-6.35h-2.67Z" transform="translate(0)"/><path class="cls-3" d="M261.64,222.7h-1.33v-6.35h1.33v-1.27h2.66v1.27h1.34v6.35H264.3V224h-2.66Zm0,0h2.66v-6.35h-2.66Z" transform="translate(0)"/><path class="cls-3" d="M270.53,222.7h-1.34v-6.35h1.34v-1.27h2.66v1.27h1.33v6.35h-1.33V224h-2.66Zm0,0h2.66v-6.35h-2.66Z" transform="translate(0)"/><path class="cls-3" d="M279.41,222.7h-1.33v-6.35h1.33v-1.27h2.67v1.27h1.33v6.35h-1.33V224h-2.67Zm0,0h2.67v-6.35h-2.67Z" transform="translate(0)"/><path class="cls-3" d="M288.3,222.7H287v-6.35h1.33v-1.27H291v1.27h1.34v6.35H291V224H288.3Zm0,0H291v-6.35H288.3Z" transform="translate(0)"/><path class="cls-3" d="M297.18,222.7h-1.33v-6.35h1.33v-1.27h2.67v1.27h1.33v6.35h-1.33V224h-2.67Zm0,0h2.67v-6.35h-2.67Z" transform="translate(0)"/><path class="cls-3" d="M306.07,224v-6.35h-1.33v-1.27h1.33v-1.27h1.33V224Z" transform="translate(0)"/><path class="cls-3" d="M312.29,224v-6.35H311v-1.27h1.33v-1.27h1.33V224Z" transform="translate(0)"/><path class="cls-3" d="M318.51,222.7h-1.33v-6.35h1.33v-1.27h2.67v1.27h1.33v6.35h-1.33V224h-2.67Zm0,0h2.67v-6.35h-2.67Z" transform="translate(0)"/><path class="cls-3" d="M327.4,224v-6.35h-1.33v-1.27h1.33v-1.27h1.33V224Z" transform="translate(0)"/><path class="cls-3" d="M333.62,224v-6.35h-1.33v-1.27h1.33v-1.27H335V224Z" transform="translate(0)"/><path class="cls-3" d="M339.84,224v-6.35h-1.33v-1.27h1.33v-1.27h1.33V224Z" transform="translate(0)"/><path class="cls-3" d="M346.06,222.7h-1.33v-6.35h1.33v-1.27h2.67v1.27h1.33v6.35h-1.33V224h-2.67Zm0,0h2.67v-6.35h-2.67Z" transform="translate(0)"/><path class="cls-3" d="M355,222.7h-1.33v-6.35H355v-1.27h2.66v1.27H359v6.35h-1.34V224H355Zm0,0h2.66v-6.35H355Z" transform="translate(0)"/><path class="cls-3" d="M363.83,224v-6.35H362.5v-1.27h1.33v-1.27h1.34V224Z" transform="translate(0)"/><path class="cls-3" d="M370.06,224v-6.35h-1.34v-1.27h1.34v-1.27h1.33V224Z" transform="translate(0)"/><path class="cls-3" d="M376.28,224v-6.35h-1.34v-1.27h1.34v-1.27h1.33V224Z" transform="translate(0)"/><path class="cls-3" d="M382.5,222.7h-1.33v-6.35h1.33v-1.27h2.66v1.27h1.34v6.35h-1.34V224H382.5Zm0,0h2.66v-6.35H382.5Z" transform="translate(0)"/><path class="cls-3" d="M391.38,224v-6.35h-1.33v-1.27h1.33v-1.27h1.34V224Z" transform="translate(0)"/><path class="cls-3" d="M397.6,222.7h-1.33v-6.35h1.33v-1.27h2.67v1.27h1.33v6.35h-1.33V224H397.6Zm0,0h2.67v-6.35H397.6Z" transform="translate(0)"/><path class="cls-3" d="M114.13,238.3h-1.34V232h1.34v-1.26h2.66V232h1.33v6.35h-1.33v1.27h-2.66Zm0,0h2.66V232h-2.66Z" transform="translate(0)"/><path class="cls-3" d="M123,239.57v-6.35h-1.33V232H123v-1.26h1.33v8.88Z" transform="translate(0)"/><path class="cls-3" d="M129.23,238.3H127.9V232h1.33v-1.26h2.67V232h1.33v6.35H131.9v1.27h-2.67Zm0,0h2.67V232h-2.67Z" transform="translate(0)"/><path class="cls-3" d="M138.12,239.57v-6.35h-1.33V232h1.33v-1.26h1.33v8.88Z" transform="translate(0)"/><path class="cls-3" d="M144.34,239.57v-6.35H143V232h1.33v-1.26h1.33v8.88Z" transform="translate(0)"/><path class="cls-3" d="M150.56,238.3h-1.33V232h1.33v-1.26h2.67V232h1.33v6.35h-1.33v1.27h-2.67Zm0,0h2.67V232h-2.67Z" transform="translate(0)"/><path class="cls-3" d="M159.45,238.3h-1.34V232h1.34v-1.26h2.66V232h1.33v6.35h-1.33v1.27h-2.66Zm0,0h2.66V232h-2.66Z" transform="translate(0)"/><path class="cls-3" d="M168.33,238.3H167V232h1.33v-1.26H171V232h1.33v6.35H171v1.27h-2.67Zm0,0H171V232h-2.67Z" transform="translate(0)"/><path class="cls-3" d="M177.22,239.57v-6.35h-1.33V232h1.33v-1.26h1.33v8.88Z" transform="translate(0)"/><path class="cls-3" d="M183.44,238.3h-1.33V232h1.33v-1.26h2.66V232h1.34v6.35H186.1v1.27h-2.66Zm0,0h2.66V232h-2.66Z" transform="translate(0)"/><path class="cls-3" d="M192.33,238.3H191V232h1.34v-1.26H195V232h1.33v6.35H195v1.27h-2.66Zm0,0H195V232h-2.66Z" transform="translate(0)"/><path class="cls-3" d="M201.21,239.57v-6.35h-1.33V232h1.33v-1.26h1.33v8.88Z" transform="translate(0)"/><path class="cls-3" d="M207.43,239.57v-6.35H206.1V232h1.33v-1.26h1.34v8.88Z" transform="translate(0)"/><path class="cls-3" d="M213.65,238.3h-1.33V232h1.33v-1.26h2.67V232h1.33v6.35h-1.33v1.27h-2.67Zm0,0h2.67V232h-2.67Z" transform="translate(0)"/><path class="cls-3" d="M222.54,238.3h-1.33V232h1.33v-1.26h2.67V232h1.33v6.35h-1.33v1.27h-2.67Zm0,0h2.67V232h-2.67Z" transform="translate(0)"/><path class="cls-3" d="M231.43,239.57v-6.35h-1.34V232h1.34v-1.26h1.33v8.88Z" transform="translate(0)"/><path class="cls-3" d="M237.65,238.3h-1.33V232h1.33v-1.26h2.66V232h1.34v6.35h-1.34v1.27h-2.66Zm0,0h2.66V232h-2.66Z" transform="translate(0)"/><path class="cls-3" d="M246.53,239.57v-6.35H245.2V232h1.33v-1.26h1.34v8.88Z" transform="translate(0)"/><path class="cls-3" d="M252.75,238.3h-1.33V232h1.33v-1.26h2.67V232h1.33v6.35h-1.33v1.27h-2.67Zm0,0h2.67V232h-2.67Z" transform="translate(0)"/><path class="cls-3" d="M261.64,239.57v-6.35h-1.33V232h1.33v-1.26H263v8.88Z" transform="translate(0)"/><path class="cls-3" d="M267.86,239.57v-6.35h-1.33V232h1.33v-1.26h1.33v8.88Z" transform="translate(0)"/><path class="cls-3" d="M274.08,239.57v-6.35h-1.33V232h1.33v-1.26h1.34v8.88Z" transform="translate(0)"/><path class="cls-3" d="M280.3,238.3H279V232h1.33v-1.26H283V232h1.33v6.35H283v1.27H280.3Zm0,0H283V232H280.3Z" transform="translate(0)"/><path class="cls-3" d="M289.19,238.3h-1.33V232h1.33v-1.26h2.66V232h1.34v6.35h-1.34v1.27h-2.66Zm0,0h2.66V232h-2.66Z" transform="translate(0)"/><path class="cls-3" d="M298.08,239.57v-6.35h-1.34V232h1.34v-1.26h1.33v8.88Z" transform="translate(0)"/><path class="cls-3" d="M304.3,238.3H303V232h1.34v-1.26H307V232h1.33v6.35H307v1.27H304.3Zm0,0H307V232H304.3Z" transform="translate(0)"/><path class="cls-3" d="M313.18,238.3h-1.33V232h1.33v-1.26h2.67V232h1.33v6.35h-1.33v1.27h-2.67Zm0,0h2.67V232h-2.67Z" transform="translate(0)"/><path class="cls-3" d="M322.07,239.57v-6.35h-1.33V232h1.33v-1.26h1.33v8.88Z" transform="translate(0)"/><path class="cls-3" d="M328.29,239.57v-6.35H327V232h1.33v-1.26h1.33v8.88Z" transform="translate(0)"/><path class="cls-3" d="M334.51,239.57v-6.35h-1.33V232h1.33v-1.26h1.33v8.88Z" transform="translate(0)"/><path class="cls-3" d="M340.73,238.3H339.4V232h1.33v-1.26h2.67V232h1.33v6.35H343.4v1.27h-2.67Zm0,0h2.67V232h-2.67Z" transform="translate(0)"/><path class="cls-3" d="M349.62,238.3h-1.33V232h1.33v-1.26h2.66V232h1.34v6.35h-1.34v1.27h-2.66Zm0,0h2.66V232h-2.66Z" transform="translate(0)"/><path class="cls-3" d="M358.5,239.57v-6.35h-1.33V232h1.33v-1.26h1.34v8.88Z" transform="translate(0)"/><path class="cls-3" d="M364.73,239.57v-6.35h-1.34V232h1.34v-1.26h1.33v8.88Z" transform="translate(0)"/><path class="cls-3" d="M371,238.3h-1.34V232H371v-1.26h2.66V232h1.33v6.35h-1.33v1.27H371Zm0,0h2.66V232H371Z" transform="translate(0)"/><path class="cls-3" d="M379.83,238.3H378.5V232h1.33v-1.26h2.67V232h1.33v6.35H382.5v1.27h-2.67Zm0,0h2.67V232h-2.67Z" transform="translate(0)"/><path class="cls-3" d="M388.72,239.57v-6.35h-1.33V232h1.33v-1.26h1.33v8.88Z" transform="translate(0)"/><path class="cls-3" d="M104.35,255.17v-6.35H103v-1.27h1.33v-1.26h1.33v8.88Z" transform="translate(0)"/><path class="cls-3" d="M110.57,253.9h-1.33v-6.35h1.33v-1.26h2.66v1.26h1.34v6.35h-1.34v1.27h-2.66Zm0,0h2.66v-6.35h-2.66Z" transform="translate(0)"/><path class="cls-3" d="M119.46,253.9h-1.34v-6.35h1.34v-1.26h2.66v1.26h1.33v6.35h-1.33v1.27h-2.66Zm0,0h2.66v-6.35h-2.66Z" transform="translate(0)"/><path class="cls-3" d="M128.34,253.9H127v-6.35h1.33v-1.26H131v1.26h1.33v6.35H131v1.27h-2.67Zm0,0H131v-6.35h-2.67Z" transform="translate(0)"/><path class="cls-3" d="M137.23,253.9h-1.34v-6.35h1.34v-1.26h2.66v1.26h1.33v6.35h-1.33v1.27h-2.66Zm0,0h2.66v-6.35h-2.66Z" transform="translate(0)"/><path class="cls-3" d="M146.11,253.9h-1.33v-6.35h1.33v-1.26h2.67v1.26h1.33v6.35h-1.33v1.27h-2.67Zm0,0h2.67v-6.35h-2.67Z" transform="translate(0)"/><path class="cls-3" d="M155,253.9h-1.33v-6.35H155v-1.26h2.66v1.26H159v6.35h-1.34v1.27H155Zm0,0h2.66v-6.35H155Z" transform="translate(0)"/><path class="cls-3" d="M163.88,255.17v-6.35h-1.33v-1.27h1.33v-1.26h1.34v8.88Z" transform="translate(0)"/><path class="cls-3" d="M170.11,253.9h-1.34v-6.35h1.34v-1.26h2.66v1.26h1.33v6.35h-1.33v1.27h-2.66Zm0,0h2.66v-6.35h-2.66Z" transform="translate(0)"/><path class="cls-3" d="M179,253.9h-1.33v-6.35H179v-1.26h2.67v1.26H183v6.35h-1.33v1.27H179Zm0,0h2.67v-6.35H179Z" transform="translate(0)"/><path class="cls-3" d="M187.88,255.17v-6.35h-1.33v-1.27h1.33v-1.26h1.33v8.88Z" transform="translate(0)"/><path class="cls-3" d="M194.1,253.9h-1.33v-6.35h1.33v-1.26h2.66v1.26h1.34v6.35h-1.34v1.27H194.1Zm0,0h2.66v-6.35H194.1Z" transform="translate(0)"/><path class="cls-3" d="M203,253.9h-1.34v-6.35H203v-1.26h2.66v1.26H207v6.35h-1.33v1.27H203Zm0,0h2.66v-6.35H203Z" transform="translate(0)"/><path class="cls-3" d="M211.87,255.17v-6.35h-1.33v-1.27h1.33v-1.26h1.33v8.88Z" transform="translate(0)"/><path class="cls-3" d="M218.09,253.9h-1.33v-6.35h1.33v-1.26h2.67v1.26h1.33v6.35h-1.33v1.27h-2.67Zm0,0h2.67v-6.35h-2.67Z" transform="translate(0)"/><path class="cls-3" d="M227,253.9h-1.33v-6.35H227v-1.26h2.66v1.26H231v6.35h-1.34v1.27H227Zm0,0h2.66v-6.35H227Z" transform="translate(0)"/><path class="cls-3" d="M235.86,255.17v-6.35h-1.33v-1.27h1.33v-1.26h1.34v8.88Z" transform="translate(0)"/><path class="cls-3" d="M242.08,253.9h-1.33v-6.35h1.33v-1.26h2.67v1.26h1.33v6.35h-1.33v1.27h-2.67Zm0,0h2.67v-6.35h-2.67Z" transform="translate(0)"/><path class="cls-3" d="M251,253.9h-1.33v-6.35H251v-1.26h2.67v1.26H255v6.35h-1.33v1.27H251Zm0,0h2.67v-6.35H251Z" transform="translate(0)"/><path class="cls-3" d="M259.86,253.9h-1.33v-6.35h1.33v-1.26h2.66v1.26h1.34v6.35h-1.34v1.27h-2.66Zm0,0h2.66v-6.35h-2.66Z" transform="translate(0)"/><path class="cls-3" d="M268.74,253.9h-1.33v-6.35h1.33v-1.26h2.67v1.26h1.33v6.35h-1.33v1.27h-2.67Zm0,0h2.67v-6.35h-2.67Z" transform="translate(0)"/><path class="cls-3" d="M277.63,253.9H276.3v-6.35h1.33v-1.26h2.66v1.26h1.34v6.35h-1.34v1.27h-2.66Zm0,0h2.66v-6.35h-2.66Z" transform="translate(0)"/><path class="cls-3" d="M286.51,253.9h-1.33v-6.35h1.33v-1.26h2.67v1.26h1.33v6.35h-1.33v1.27h-2.67Zm0,0h2.67v-6.35h-2.67Z" transform="translate(0)"/><path class="cls-3" d="M295.4,255.17v-6.35h-1.33v-1.27h1.33v-1.26h1.33v8.88Z" transform="translate(0)"/><path class="cls-3" d="M301.62,255.17v-6.35h-1.33v-1.27h1.33v-1.26H303v8.88Z" transform="translate(0)"/><path class="cls-3" d="M307.84,253.9h-1.33v-6.35h1.33v-1.26h2.67v1.26h1.33v6.35h-1.33v1.27h-2.67Zm0,0h2.67v-6.35h-2.67Z" transform="translate(0)"/><path class="cls-3" d="M316.73,253.9H315.4v-6.35h1.33v-1.26h2.66v1.26h1.34v6.35h-1.34v1.27h-2.66Zm0,0h2.66v-6.35h-2.66Z" transform="translate(0)"/><path class="cls-3" d="M325.62,255.17v-6.35h-1.34v-1.27h1.34v-1.26H327v8.88Z" transform="translate(0)"/><path class="cls-3" d="M331.84,253.9H330.5v-6.35h1.34v-1.26h2.66v1.26h1.33v6.35H334.5v1.27h-2.66Zm0,0h2.66v-6.35h-2.66Z" transform="translate(0)"/><path class="cls-3" d="M340.72,253.9h-1.33v-6.35h1.33v-1.26h2.67v1.26h1.33v6.35h-1.33v1.27h-2.67Zm0,0h2.67v-6.35h-2.67Z" transform="translate(0)"/><path class="cls-3" d="M349.61,253.9h-1.33v-6.35h1.33v-1.26h2.66v1.26h1.34v6.35h-1.34v1.27h-2.66Zm0,0h2.66v-6.35h-2.66Z" transform="translate(0)"/><path class="cls-3" d="M358.5,255.17v-6.35h-1.34v-1.27h1.34v-1.26h1.33v8.88Z" transform="translate(0)"/><path class="cls-3" d="M364.72,255.17v-6.35h-1.34v-1.27h1.34v-1.26h1.33v8.88Z" transform="translate(0)"/><path class="cls-3" d="M370.94,253.9H369.6v-6.35h1.34v-1.26h2.66v1.26h1.33v6.35H373.6v1.27h-2.66Zm0,0h2.66v-6.35h-2.66Z" transform="translate(0)"/><path class="cls-3" d="M379.82,255.17v-6.35h-1.33v-1.27h1.33v-1.26h1.34v8.88Z" transform="translate(0)"/><path class="cls-3" d="M386,255.17v-6.35h-1.33v-1.27H386v-1.26h1.34v8.88Z" transform="translate(0)"/><path class="cls-3" d="M392.27,255.17v-6.35h-1.34v-1.27h1.34v-1.26h1.33v8.88Z" transform="translate(0)"/><path class="cls-3" d="M398.49,255.17v-6.35h-1.34v-1.27h1.34v-1.26h1.33v8.88Z" transform="translate(0)"/><path class="cls-3" d="M104.35,269.5H103v-6.35h1.33v-1.26H107v1.26h1.33v6.35H107v1.27h-2.66Zm0,0H107v-6.35h-2.66Z" transform="translate(0)"/><path class="cls-3" d="M113.23,269.5H111.9v-6.35h1.33v-1.26h2.67v1.26h1.33v6.35H115.9v1.27h-2.67Zm0,0h2.67v-6.35h-2.67Z" transform="translate(0)"/><path class="cls-3" d="M122.12,269.5h-1.33v-6.35h1.33v-1.26h2.66v1.26h1.34v6.35h-1.34v1.27h-2.66Zm0,0h2.66v-6.35h-2.66Z" transform="translate(0)"/><path class="cls-3" d="M131,269.5h-1.34v-6.35H131v-1.26h2.66v1.26H135v6.35h-1.33v1.27H131Zm0,0h2.66v-6.35H131Z" transform="translate(0)"/><path class="cls-3" d="M139.89,270.77v-6.35h-1.33v-1.27h1.33v-1.26h1.33v8.88Z" transform="translate(0)"/><path class="cls-3" d="M146.11,270.77v-6.35h-1.33v-1.27h1.33v-1.26h1.34v8.88Z" transform="translate(0)"/><path class="cls-3" d="M152.33,269.5H151v-6.35h1.33v-1.26H155v1.26h1.33v6.35H155v1.27h-2.67Zm0,0H155v-6.35h-2.67Z" transform="translate(0)"/><path class="cls-3" d="M161.22,270.77v-6.35h-1.33v-1.27h1.33v-1.26h1.33v8.88Z" transform="translate(0)"/><path class="cls-3" d="M167.44,270.77v-6.35h-1.33v-1.27h1.33v-1.26h1.33v8.88Z" transform="translate(0)"/><path class="cls-3" d="M173.66,270.77v-6.35h-1.33v-1.27h1.33v-1.26H175v8.88Z" transform="translate(0)"/><path class="cls-3" d="M179.88,269.5h-1.33v-6.35h1.33v-1.26h2.67v1.26h1.33v6.35h-1.33v1.27h-2.67Zm0,0h2.67v-6.35h-2.67Z" transform="translate(0)"/><path class="cls-3" d="M188.77,269.5h-1.33v-6.35h1.33v-1.26h2.66v1.26h1.34v6.35h-1.34v1.27h-2.66Zm0,0h2.66v-6.35h-2.66Z" transform="translate(0)"/><path class="cls-3" d="M197.66,270.77v-6.35h-1.34v-1.27h1.34v-1.26H199v8.88Z" transform="translate(0)"/><path class="cls-3" d="M203.88,270.77v-6.35h-1.34v-1.27h1.34v-1.26h1.33v8.88Z" transform="translate(0)"/><path class="cls-3" d="M210.1,269.5h-1.33v-6.35h1.33v-1.26h2.66v1.26h1.34v6.35h-1.34v1.27H210.1Zm0,0h2.66v-6.35H210.1Z" transform="translate(0)"/><path class="cls-3" d="M219,270.77v-6.35h-1.33v-1.27H219v-1.26h1.34v8.88Z" transform="translate(0)"/><path class="cls-3" d="M225.21,270.77v-6.35h-1.34v-1.27h1.34v-1.26h1.33v8.88Z" transform="translate(0)"/><path class="cls-3" d="M231.43,270.77v-6.35h-1.34v-1.27h1.34v-1.26h1.33v8.88Z" transform="translate(0)"/><path class="cls-3" d="M237.65,270.77v-6.35h-1.33v-1.27h1.33v-1.26H239v8.88Z" transform="translate(0)"/><path class="cls-3" d="M243.87,269.5h-1.33v-6.35h1.33v-1.26h2.66v1.26h1.34v6.35h-1.34v1.27h-2.66Zm0,0h2.66v-6.35h-2.66Z" transform="translate(0)"/><path class="cls-3" d="M252.75,270.77v-6.35h-1.33v-1.27h1.33v-1.26h1.34v8.88Z" transform="translate(0)"/><path class="cls-3" d="M259,270.77v-6.35h-1.34v-1.27H259v-1.26h1.33v8.88Z" transform="translate(0)"/><path class="cls-3" d="M265.2,270.77v-6.35h-1.34v-1.27h1.34v-1.26h1.33v8.88Z" transform="translate(0)"/><path class="cls-3" d="M271.42,269.5h-1.33v-6.35h1.33v-1.26h2.66v1.26h1.34v6.35h-1.34v1.27h-2.66Zm0,0h2.66v-6.35h-2.66Z" transform="translate(0)"/><path class="cls-3" d="M280.3,270.77v-6.35H279v-1.27h1.33v-1.26h1.34v8.88Z" transform="translate(0)"/><path class="cls-3" d="M286.52,269.5h-1.33v-6.35h1.33v-1.26h2.67v1.26h1.33v6.35h-1.33v1.27h-2.67Zm0,0h2.67v-6.35h-2.67Z" transform="translate(0)"/><path class="cls-3" d="M295.41,269.5h-1.33v-6.35h1.33v-1.26h2.67v1.26h1.33v6.35h-1.33v1.27h-2.67Zm0,0h2.67v-6.35h-2.67Z" transform="translate(0)"/><path class="cls-3" d="M304.3,269.5H303v-6.35h1.34v-1.26H307v1.26h1.33v6.35H307v1.27H304.3Zm0,0H307v-6.35H304.3Z" transform="translate(0)"/><path class="cls-3" d="M313.18,269.5h-1.33v-6.35h1.33v-1.26h2.67v1.26h1.33v6.35h-1.33v1.27h-2.67Zm0,0h2.67v-6.35h-2.67Z" transform="translate(0)"/><path class="cls-3" d="M322.07,270.77v-6.35h-1.33v-1.27h1.33v-1.26h1.33v8.88Z" transform="translate(0)"/><path class="cls-3" d="M328.29,269.5H327v-6.35h1.33v-1.26H331v1.26h1.33v6.35H331v1.27h-2.67Zm0,0H331v-6.35h-2.67Z" transform="translate(0)"/><path class="cls-3" d="M337.18,269.5h-1.34v-6.35h1.34v-1.26h2.66v1.26h1.33v6.35h-1.33v1.27h-2.66Zm0,0h2.66v-6.35h-2.66Z" transform="translate(0)"/><path class="cls-3" d="M346.06,269.5h-1.33v-6.35h1.33v-1.26h2.67v1.26h1.33v6.35h-1.33v1.27h-2.67Zm0,0h2.67v-6.35h-2.67Z" transform="translate(0)"/><path class="cls-3" d="M355,269.5h-1.33v-6.35H355v-1.26h2.66v1.26H359v6.35h-1.34v1.27H355Zm0,0h2.66v-6.35H355Z" transform="translate(0)"/><path class="cls-3" d="M363.83,269.5H362.5v-6.35h1.33v-1.26h2.67v1.26h1.33v6.35H366.5v1.27h-2.67Zm0,0h2.67v-6.35h-2.67Z" transform="translate(0)"/><path class="cls-3" d="M372.72,269.5h-1.33v-6.35h1.33v-1.26h2.66v1.26h1.34v6.35h-1.34v1.27h-2.66Zm0,0h2.66v-6.35h-2.66Z" transform="translate(0)"/><path class="cls-3" d="M381.61,270.77v-6.35h-1.34v-1.27h1.34v-1.26h1.33v8.88Z" transform="translate(0)"/><path class="cls-3" d="M387.83,270.77v-6.35H386.5v-1.27h1.33v-1.26h1.33v8.88Z" transform="translate(0)"/><path class="cls-3" d="M394.05,269.5h-1.33v-6.35h1.33v-1.26h2.66v1.26h1.34v6.35h-1.34v1.27h-2.66Zm0,0h2.66v-6.35h-2.66Z" transform="translate(0)"/><path class="cls-3" d="M125.68,285.1h-1.34v-6.35h1.34v-1.27h2.66v1.27h1.33v6.35h-1.33v1.27h-2.66Zm0,0h2.66v-6.35h-2.66Z" transform="translate(0)"/><path class="cls-3" d="M134.56,285.1h-1.33v-6.35h1.33v-1.27h2.67v1.27h1.33v6.35h-1.33v1.27h-2.67Zm0,0h2.67v-6.35h-2.67Z" transform="translate(0)"/><path class="cls-3" d="M143.45,286.37V280h-1.33v-1.27h1.33v-1.27h1.33v8.89Z" transform="translate(0)"/><path class="cls-3" d="M149.67,285.1h-1.33v-6.35h1.33v-1.27h2.66v1.27h1.34v6.35h-1.34v1.27h-2.66Zm0,0h2.66v-6.35h-2.66Z" transform="translate(0)"/><path class="cls-3" d="M158.56,286.37V280h-1.34v-1.27h1.34v-1.27h1.33v8.89Z" transform="translate(0)"/><path class="cls-3" d="M164.78,286.37V280h-1.34v-1.27h1.34v-1.27h1.33v8.89Z" transform="translate(0)"/><path class="cls-3" d="M171,286.37V280h-1.33v-1.27H171v-1.27h1.33v8.89Z" transform="translate(0)"/><path class="cls-3" d="M177.22,285.1h-1.33v-6.35h1.33v-1.27h2.66v1.27h1.34v6.35h-1.34v1.27h-2.66Zm0,0h2.66v-6.35h-2.66Z" transform="translate(0)"/><path class="cls-3" d="M186.1,286.37V280h-1.33v-1.27h1.33v-1.27h1.34v8.89Z" transform="translate(0)"/><path class="cls-3" d="M192.33,286.37V280H191v-1.27h1.34v-1.27h1.33v8.89Z" transform="translate(0)"/><path class="cls-3" d="M198.55,285.1h-1.34v-6.35h1.34v-1.27h2.66v1.27h1.33v6.35h-1.33v1.27h-2.66Zm0,0h2.66v-6.35h-2.66Z" transform="translate(0)"/><path class="cls-3" d="M207.43,285.1H206.1v-6.35h1.33v-1.27h2.67v1.27h1.33v6.35H210.1v1.27h-2.67Zm0,0h2.67v-6.35h-2.67Z" transform="translate(0)"/><path class="cls-3" d="M216.32,286.37V280H215v-1.27h1.33v-1.27h1.33v8.89Z" transform="translate(0)"/><path class="cls-3" d="M222.54,286.37V280h-1.33v-1.27h1.33v-1.27h1.33v8.89Z" transform="translate(0)"/><path class="cls-3" d="M228.76,285.1h-1.33v-6.35h1.33v-1.27h2.67v1.27h1.33v6.35h-1.33v1.27h-2.67Zm0,0h2.67v-6.35h-2.67Z" transform="translate(0)"/><path class="cls-3" d="M237.65,285.1h-1.33v-6.35h1.33v-1.27h2.66v1.27h1.34v6.35h-1.34v1.27h-2.66Zm0,0h2.66v-6.35h-2.66Z" transform="translate(0)"/><path class="cls-3" d="M246.53,286.37V280H245.2v-1.27h1.33v-1.27h1.34v8.89Z" transform="translate(0)"/><path class="cls-3" d="M252.75,285.1h-1.33v-6.35h1.33v-1.27h2.67v1.27h1.33v6.35h-1.33v1.27h-2.67Zm0,0h2.67v-6.35h-2.67Z" transform="translate(0)"/><path class="cls-3" d="M261.64,286.37V280h-1.33v-1.27h1.33v-1.27H263v8.89Z" transform="translate(0)"/><path class="cls-3" d="M267.86,285.1h-1.33v-6.35h1.33v-1.27h2.67v1.27h1.33v6.35h-1.33v1.27h-2.67Zm0,0h2.67v-6.35h-2.67Z" transform="translate(0)"/><path class="cls-3" d="M276.75,285.1h-1.33v-6.35h1.33v-1.27h2.66v1.27h1.34v6.35h-1.34v1.27h-2.66Zm0,0h2.66v-6.35h-2.66Z" transform="translate(0)"/><path class="cls-3" d="M285.63,286.37V280H284.3v-1.27h1.33v-1.27H287v8.89Z" transform="translate(0)"/><path class="cls-3" d="M291.85,285.1h-1.33v-6.35h1.33v-1.27h2.67v1.27h1.33v6.35h-1.33v1.27h-2.67Zm0,0h2.67v-6.35h-2.67Z" transform="translate(0)"/><path class="cls-3" d="M300.74,285.1h-1.33v-6.35h1.33v-1.27h2.67v1.27h1.33v6.35h-1.33v1.27h-2.67Zm0,0h2.67v-6.35h-2.67Z" transform="translate(0)"/><path class="cls-3" d="M309.63,285.1h-1.34v-6.35h1.34v-1.27h2.66v1.27h1.34v6.35h-1.34v1.27h-2.66Zm0,0h2.66v-6.35h-2.66Z" transform="translate(0)"/><path class="cls-3" d="M318.51,285.1h-1.33v-6.35h1.33v-1.27h2.67v1.27h1.33v6.35h-1.33v1.27h-2.67Zm0,0h2.67v-6.35h-2.67Z" transform="translate(0)"/><path class="cls-3" d="M327.4,285.1h-1.33v-6.35h1.33v-1.27h2.66v1.27h1.34v6.35h-1.34v1.27H327.4Zm0,0h2.66v-6.35H327.4Z" transform="translate(0)"/><path class="cls-3" d="M336.28,285.1H335v-6.35h1.33v-1.27H339v1.27h1.33v6.35H339v1.27h-2.67Zm0,0H339v-6.35h-2.67Z" transform="translate(0)"/><path class="cls-3" d="M345.17,286.37V280h-1.33v-1.27h1.33v-1.27h1.33v8.89Z" transform="translate(0)"/><path class="cls-3" d="M351.39,286.37V280h-1.33v-1.27h1.33v-1.27h1.33v8.89Z" transform="translate(0)"/><path class="cls-3" d="M357.61,286.37V280h-1.33v-1.27h1.33v-1.27H359v8.89Z" transform="translate(0)"/><path class="cls-3" d="M363.83,285.1H362.5v-6.35h1.33v-1.27h2.67v1.27h1.33v6.35H366.5v1.27h-2.67Zm0,0h2.67v-6.35h-2.67Z" transform="translate(0)"/><path class="cls-3" d="M372.72,286.37V280h-1.33v-1.27h1.33v-1.27h1.33v8.89Z" transform="translate(0)"/><path class="cls-3" d="M378.94,285.1h-1.33v-6.35h1.33v-1.27h2.67v1.27h1.33v6.35h-1.33v1.27h-2.67Zm0,0h2.67v-6.35h-2.67Z" transform="translate(0)"/><path class="cls-3" d="M158.56,302v-6.35h-1.34v-1.27h1.34v-1.27h1.33V302Z" transform="translate(0)"/><path class="cls-3" d="M164.78,300.7h-1.34v-6.35h1.34v-1.27h2.66v1.27h1.33v6.35h-1.33V302h-2.66Zm0,0h2.66v-6.35h-2.66Z" transform="translate(0)"/><path class="cls-3" d="M173.66,302v-6.35h-1.33v-1.27h1.33v-1.27H175V302Z" transform="translate(0)"/><path class="cls-3" d="M179.88,300.7h-1.33v-6.35h1.33v-1.27h2.67v1.27h1.33v6.35h-1.33V302h-2.67Zm0,0h2.67v-6.35h-2.67Z" transform="translate(0)"/><path class="cls-3" d="M188.77,300.7h-1.33v-6.35h1.33v-1.27h2.66v1.27h1.34v6.35h-1.34V302h-2.66Zm0,0h2.66v-6.35h-2.66Z" transform="translate(0)"/><path class="cls-3" d="M197.66,302v-6.35h-1.34v-1.27h1.34v-1.27H199V302Z" transform="translate(0)"/><path class="cls-3" d="M203.88,300.7h-1.34v-6.35h1.34v-1.27h2.66v1.27h1.33v6.35h-1.33V302h-2.66Zm0,0h2.66v-6.35h-2.66Z" transform="translate(0)"/><path class="cls-3" d="M212.76,300.7h-1.33v-6.35h1.33v-1.27h2.67v1.27h1.33v6.35h-1.33V302h-2.67Zm0,0h2.67v-6.35h-2.67Z" transform="translate(0)"/><path class="cls-3" d="M221.65,300.7h-1.33v-6.35h1.33v-1.27h2.66v1.27h1.34v6.35h-1.34V302h-2.66Zm0,0h2.66v-6.35h-2.66Z" transform="translate(0)"/><path class="cls-3" d="M230.53,300.7H229.2v-6.35h1.33v-1.27h2.67v1.27h1.33v6.35H233.2V302h-2.67Zm0,0h2.67v-6.35h-2.67Z" transform="translate(0)"/><path class="cls-3" d="M239.42,300.7h-1.33v-6.35h1.33v-1.27h2.66v1.27h1.34v6.35h-1.34V302h-2.66Zm0,0h2.66v-6.35h-2.66Z" transform="translate(0)"/><path class="cls-3" d="M248.31,300.7H247v-6.35h1.34v-1.27H251v1.27h1.33v6.35H251V302h-2.66Zm0,0H251v-6.35h-2.66Z" transform="translate(0)"/><path class="cls-3" d="M257.19,302v-6.35h-1.33v-1.27h1.33v-1.27h1.34V302Z" transform="translate(0)"/><path class="cls-3" d="M263.41,302v-6.35h-1.33v-1.27h1.33v-1.27h1.34V302Z" transform="translate(0)"/><path class="cls-3" d="M269.63,302v-6.35H268.3v-1.27h1.33v-1.27H271V302Z" transform="translate(0)"/><path class="cls-3" d="M275.86,300.7h-1.34v-6.35h1.34v-1.27h2.66v1.27h1.33v6.35h-1.33V302h-2.66Zm0,0h2.66v-6.35h-2.66Z" transform="translate(0)"/><path class="cls-3" d="M284.74,300.7h-1.33v-6.35h1.33v-1.27h2.67v1.27h1.33v6.35h-1.33V302h-2.67Zm0,0h2.67v-6.35h-2.67Z" transform="translate(0)"/><path class="cls-3" d="M293.63,300.7H292.3v-6.35h1.33v-1.27h2.66v1.27h1.34v6.35h-1.34V302h-2.66Zm0,0h2.66v-6.35h-2.66Z" transform="translate(0)"/><path class="cls-3" d="M302.51,300.7h-1.33v-6.35h1.33v-1.27h2.67v1.27h1.33v6.35h-1.33V302h-2.67Zm0,0h2.67v-6.35h-2.67Z" transform="translate(0)"/><path class="cls-3" d="M311.4,300.7h-1.33v-6.35h1.33v-1.27h2.66v1.27h1.34v6.35h-1.34V302H311.4Zm0,0h2.66v-6.35H311.4Z" transform="translate(0)"/><path class="cls-3" d="M320.29,302v-6.35H319v-1.27h1.34v-1.27h1.33V302Z" transform="translate(0)"/><path class="cls-3" d="M326.51,302v-6.35h-1.34v-1.27h1.34v-1.27h1.33V302Z" transform="translate(0)"/><path class="cls-3" d="M332.73,300.7H331.4v-6.35h1.33v-1.27h2.66v1.27h1.34v6.35h-1.34V302h-2.66Zm0,0h2.66v-6.35h-2.66Z" transform="translate(0)"/><path class="cls-3" d="M341.61,300.7h-1.33v-6.35h1.33v-1.27h2.67v1.27h1.33v6.35h-1.33V302h-2.67Zm0,0h2.67v-6.35h-2.67Z" transform="translate(0)"/><path class="cls-3" d="M177.22,316.3h-1.33V310h1.33v-1.26h2.66V310h1.34v6.35h-1.34v1.27h-2.66Zm0,0h2.66V310h-2.66Z" transform="translate(0)"/><path class="cls-3" d="M186.1,317.57v-6.35h-1.33V310h1.33v-1.26h1.34v8.88Z" transform="translate(0)"/><path class="cls-3" d="M192.33,316.3H191V310h1.34v-1.26H195V310h1.33v6.35H195v1.27h-2.66Zm0,0H195V310h-2.66Z" transform="translate(0)"/><path class="cls-3" d="M201.21,317.57v-6.35h-1.33V310h1.33v-1.26h1.33v8.88Z" transform="translate(0)"/><path class="cls-3" d="M207.43,317.57v-6.35H206.1V310h1.33v-1.26h1.34v8.88Z" transform="translate(0)"/><path class="cls-3" d="M213.65,316.3h-1.33V310h1.33v-1.26h2.67V310h1.33v6.35h-1.33v1.27h-2.67Zm0,0h2.67V310h-2.67Z" transform="translate(0)"/><path class="cls-3" d="M222.54,317.57v-6.35h-1.33V310h1.33v-1.26h1.33v8.88Z" transform="translate(0)"/><path class="cls-3" d="M228.76,317.57v-6.35h-1.33V310h1.33v-1.26h1.33v8.88Z" transform="translate(0)"/><path class="cls-3" d="M235,317.57v-6.35h-1.33V310H235v-1.26h1.34v8.88Z" transform="translate(0)"/><path class="cls-3" d="M241.2,316.3h-1.33V310h1.33v-1.26h2.67V310h1.33v6.35h-1.33v1.27H241.2Zm0,0h2.67V310H241.2Z" transform="translate(0)"/><path class="cls-3" d="M250.09,316.3h-1.33V310h1.33v-1.26h2.66V310h1.34v6.35h-1.34v1.27h-2.66Zm0,0h2.66V310h-2.66Z" transform="translate(0)"/><path class="cls-3" d="M259,317.57v-6.35h-1.34V310H259v-1.26h1.33v8.88Z" transform="translate(0)"/><path class="cls-3" d="M265.2,317.57v-6.35h-1.34V310h1.34v-1.26h1.33v8.88Z" transform="translate(0)"/><path class="cls-3" d="M271.42,316.3h-1.33V310h1.33v-1.26h2.66V310h1.34v6.35h-1.34v1.27h-2.66Zm0,0h2.66V310h-2.66Z" transform="translate(0)"/><path class="cls-3" d="M280.3,316.3H279V310h1.33v-1.26H283V310h1.33v6.35H283v1.27H280.3Zm0,0H283V310H280.3Z" transform="translate(0)"/><path class="cls-3" d="M289.19,316.3h-1.33V310h1.33v-1.26h2.66V310h1.34v6.35h-1.34v1.27h-2.66Zm0,0h2.66V310h-2.66Z" transform="translate(0)"/><path class="cls-3" d="M298.08,317.57v-6.35h-1.34V310h1.34v-1.26h1.33v8.88Z" transform="translate(0)"/><path class="cls-3" d="M304.3,317.57v-6.35H303V310h1.34v-1.26h1.33v8.88Z" transform="translate(0)"/><path class="cls-3" d="M310.52,316.3h-1.33V310h1.33v-1.26h2.66V310h1.34v6.35h-1.34v1.27h-2.66Zm0,0h2.66V310h-2.66Z" transform="translate(0)"/><path class="cls-3" d="M319.4,317.57v-6.35h-1.33V310h1.33v-1.26h1.34v8.88Z" transform="translate(0)"/><path class="cls-3" d="M202.1,333.17v-6.35h-1.33v-1.27h1.33v-1.26h1.34v8.88Z" transform="translate(0)"/><path class="cls-3" d="M208.32,333.17v-6.35H207v-1.27h1.33v-1.26h1.34v8.88Z" transform="translate(0)"/><path class="cls-3" d="M214.54,333.17v-6.35h-1.33v-1.27h1.33v-1.26h1.34v8.88Z" transform="translate(0)"/><path class="cls-3" d="M220.77,331.9h-1.34v-6.35h1.34v-1.26h2.66v1.26h1.33v6.35h-1.33v1.27h-2.66Zm0,0h2.66v-6.35h-2.66Z" transform="translate(0)"/><path class="cls-3" d="M229.65,331.9h-1.33v-6.35h1.33v-1.26h2.67v1.26h1.33v6.35h-1.33v1.27h-2.67Zm0,0h2.67v-6.35h-2.67Z" transform="translate(0)"/><path class="cls-3" d="M238.54,333.17v-6.35h-1.33v-1.27h1.33v-1.26h1.33v8.88Z" transform="translate(0)"/><path class="cls-3" d="M244.76,331.9h-1.33v-6.35h1.33v-1.26h2.66v1.26h1.34v6.35h-1.34v1.27h-2.66Zm0,0h2.66v-6.35h-2.66Z" transform="translate(0)"/><path class="cls-3" d="M253.65,331.9h-1.34v-6.35h1.34v-1.26h2.66v1.26h1.33v6.35h-1.33v1.27h-2.66Zm0,0h2.66v-6.35h-2.66Z" transform="translate(0)"/><path class="cls-3" d="M262.53,331.9H261.2v-6.35h1.33v-1.26h2.67v1.26h1.33v6.35H265.2v1.27h-2.67Zm0,0h2.67v-6.35h-2.67Z" transform="translate(0)"/><path class="cls-3" d="M271.42,333.17v-6.35h-1.33v-1.27h1.33v-1.26h1.33v8.88Z" transform="translate(0)"/><path class="cls-3" d="M277.64,331.9h-1.33v-6.35h1.33v-1.26h2.66v1.26h1.34v6.35H280.3v1.27h-2.66Zm0,0h2.66v-6.35h-2.66Z" transform="translate(0)"/><path class="cls-3" d="M286.52,331.9h-1.33v-6.35h1.33v-1.26h2.67v1.26h1.33v6.35h-1.33v1.27h-2.67Zm0,0h2.67v-6.35h-2.67Z" transform="translate(0)"/><path class="cls-3" d="M295.41,331.9h-1.33v-6.35h1.33v-1.26h2.67v1.26h1.33v6.35h-1.33v1.27h-2.67Zm0,0h2.67v-6.35h-2.67Z" transform="translate(0)"/><path class="cls-3" d="M304.3,331.9H303v-6.35h1.34v-1.26H307v1.26h1.33v6.35H307v1.27H304.3Zm0,0H307v-6.35H304.3Z" transform="translate(0)"/><path class="cls-3" d="M313.18,331.9h-1.33v-6.35h1.33v-1.26h2.67v1.26h1.33v6.35h-1.33v1.27h-2.67Zm0,0h2.67v-6.35h-2.67Z" transform="translate(0)"/><path class="cls-4" d="M324.81,304.69a50,50,0,0,1-.25,5.74c.16-1.34-.23,1-.34,1.47a8.35,8.35,0,0,1-.3,1c-.29.83.48-.95-.16.31a4.61,4.61,0,0,1-.52.85c-.62.77.67-.81-.16.18s-1,1-1.08,1a14.44,14.44,0,0,1-5.42,2.34c-7.26,2.08-15,2.5-22.49,2.92-13.61.76-27.26.81-40.89.81l5,5v-.18a5.08,5.08,0,0,0-3.67-4.82,5.75,5.75,0,0,0-4.38.68l7.53,4.32c0-.11,0-.21,0-.32,0-3.52-3.18-5.35-6.33-4.82h2.54c-3.15-.53-6.33,1.3-6.33,4.82,0,.11,0,.21,0,.32l7.52-4.32a6.24,6.24,0,0,0-4.37-.69,5,5,0,0,0-3.67,4.82v.19l5-5c-13.64,0-27.3,0-40.91-.81-7.5-.42-15.23-.84-22.49-2.92a14.71,14.71,0,0,1-5.25-2.23,5,5,0,0,1-1.92-2.14c-.64-1.27.12.52-.17-.32-.11-.32-.22-.64-.3-1s-.5-2.86-.34-1.47a50,50,0,0,1-.24-5.74,5.15,5.15,0,0,0-3.67-4.82c-20.86-7.49-43.35-16.39-60.08-31.46a43.21,43.21,0,0,1-9.24-10.84c-.39-.67-.74-1.37-1.08-2.06-.44-.9-.11-.22-.09-.19-.12-.32-.26-.64-.36-1-.26-.88-.48-1.74-.66-2.63.4,2-.07.59.08,0,1.66-6.43,6.71-9.16,12.76-11.53,3.69-1.44,4.7-5.27,2.2-8.36-8.45-10.41-17.31-24.91-11.8-38.7,5.09-12.73,17.42-17.53,30.79-16.87,3.36.17,5.54-3.32,4.82-6.33-3.29-13.8-3.13-29.56,9-39.07,13.6-10.7,31.72-9,46.21-1.07a5.07,5.07,0,0,0,7.35-3c5.49-19.81,19.39-34.53,40-38,10-1.71,21.26.69,30.68,6.41,11.51,7,18.3,18.63,21.79,31.39a5.06,5.06,0,0,0,7.34,3c14.4-7.8,32.35-9.26,45.79,1.31,12.08,9.51,12.24,25.27,9,39.07-.72,3,1.46,6.5,4.82,6.33,13.36-.66,25.7,4.14,30.78,16.86,5.51,13.79-3.35,28.31-11.8,38.71-2.5,3.09-1.48,6.92,2.21,8.36,5.72,2.24,12.36,5.39,12.74,12.17,0,.82.34-1.45,0-.24-.12.45-.19.91-.32,1.35s-.34,1-.52,1.55c-.37,1,.33-.7,0,.15-.18.38-.36.77-.56,1.15-5.73,10.56-16.74,18.2-27.3,24.37-13.5,7.89-28,13.89-42.7,19.17-6,2.16-3.42,11.82,2.66,9.64,23.22-8.33,48.37-18.32,66.41-35.83,5.63-5.46,12.08-13.19,12.36-21.51.4-11.64-10.7-17.94-20.09-21.61l2.2,8.36c11.12-13.71,21.22-31.8,13.88-49.65-6.78-16.48-22.62-23.86-39.93-23l4.82,6.33c4.3-18.06,2.83-37.85-12.91-49.87-16.75-12.78-38.6-11.51-56.53-1.81l7.35,3C302.45,101.06,285.8,83,261.92,79a56.56,56.56,0,0,0-40.13,8.79C209,96.37,201.05,109.52,197,124.15l7.34-3c-18-9.9-40.05-11.33-57,1.57-15.74,12-17.2,31.81-12.9,49.87l4.82-6.33c-17.31-.86-33.16,6.52-39.93,23-7.34,17.86,2.75,35.94,13.87,49.65l2.21-8.36c-9.3,3.63-20.31,9.82-20.11,21.31a18.82,18.82,0,0,0,1.48,6.54c5.23,13.23,18.49,22.63,30.17,29.7,14.77,8.95,30.92,15.57,47.13,21.39l-3.67-4.82c0,10.42,3,18.14,13.45,21.85,7.54,2.67,15.93,3.19,23.85,3.73,14.74,1,29.55,1,44.32,1a5,5,0,0,0,5-5v-.19l-3.67,4.82.1,0-3.86-.5.42.21c3.24,1.61,7.66-.31,7.53-4.32,0-.11,0-.21,0-.32l-6.33,4.82a5.94,5.94,0,0,0,2.78,0L247.7,326c0,.11,0,.21,0,.32-.14,4,4.29,5.93,7.52,4.32l.42-.21-3.85.5.1,0-3.67-4.82v.18a5.05,5.05,0,0,0,5,5c14.76,0,29.57,0,44.3-1,7.91-.54,16.31-1.06,23.85-3.73,10.46-3.71,13.4-11.42,13.46-21.84C334.84,298.25,324.84,298.25,324.81,304.69Z" transform="translate(0)"/><path class="cls-4" d="M251.31,321.15h-.06l6.33,4.82v0l-6.33,4.82h.06a5.62,5.62,0,0,0,3.85-.5,5,5,0,0,0,1.8-6.84,4.89,4.89,0,0,0-3-2.3h-.06a5,5,0,0,0-2.66,0,3.72,3.72,0,0,0-1.7.89,4.89,4.89,0,0,0-2,3.93v0a4.89,4.89,0,0,0,2,3.93,3.72,3.72,0,0,0,1.7.89,5,5,0,0,0,2.66,0H254a5,5,0,0,0,3-2.3,5.12,5.12,0,0,0,.5-3.85,5,5,0,0,0-2.3-3l-1.19-.5A5,5,0,0,0,251.31,321.15Z" transform="translate(0)"/><path class="cls-4" d="M247.7,326v0l6.33-4.82H254v9.64H254a5,5,0,0,0,3-2.3,5.12,5.12,0,0,0,.5-3.85,5,5,0,0,0-2.3-3l-1.19-.5a5,5,0,0,0-2.66,0h-.06l-1.2.5a3.86,3.86,0,0,0-1.4,1.29,4.75,4.75,0,0,0-1.07,3,6,6,0,0,0,.68,2.52,4.93,4.93,0,0,0,3,2.3h.06a5,5,0,0,0,2.66,0,3.77,3.77,0,0,0,1.7-.89,4.92,4.92,0,0,0,2-3.93v0a5.17,5.17,0,0,0-1.47-3.54,5,5,0,0,0-7.07,0A5.21,5.21,0,0,0,247.7,326Z" transform="translate(0)"/><path class="cls-4" d="M113.28,331.67c-5,1.09-10.08,4.14-9.89,9.88s5.61,10.14,9.8,13.31c16.24,12.26,36.88,19.63,56.07,25.72,26,8.24,53.36,13.68,80.67,13.9s54.78-5.3,80.72-13.59c19.75-6.31,40.63-14.06,57.6-26.25,4.25-3.05,9.68-7,11.07-12.34,1.47-5.65-2.94-9.53-8-10.68-13.28-3-28-2.68-41.53-3.26-27.21-1.17-54.46-1.53-81.69-1.64-32-.14-64,.15-96,1.21-17.71.59-35.58,1-53.21,3-1.87.21-3.76.41-5.62.78-6.3,1.24-3.63,10.88,2.66,9.64a20.88,20.88,0,0,1,3.44-.47c2.51-.27,5-.48,7.54-.67,8-.61,16-1,24-1.41,25.25-1.17,50.54-1.72,75.82-2,48.56-.45,97.48-.7,146,2.84,2.87.21,5.73.44,8.6.72,1.13.11,2.26.22,3.38.35l1.52.18.72.09c1,.15,1.93.34,2.9.58.75.18.48.18.5.2-.35-.61-.37-1.9-.62-2.27.17.25,0,.36-.65,1.26-2.5,3.18-8.56,7.24-13,9.87a194.28,194.28,0,0,1-25,12.24,296.78,296.78,0,0,1-70.26,19.45c-25.14,3.64-50.42,2.27-75.28-2.7-22.64-4.52-45.2-11.35-66.12-21.2-7.08-3.34-14.31-7-20.56-11.75a46.38,46.38,0,0,1-4.7-4.35c-.27-.34-.42-.77-.69-1.1s.21-.15-.07-.18a3.57,3.57,0,0,1-.23,1c-.17.42-.9.37.33,0-.28.1,1.65-.52,2.48-.7C122.23,339.94,119.57,330.29,113.28,331.67Z" transform="translate(0)"/><path class="cls-5" d="M123.83,364c-28.28,0,67.63-29.7,128.81-29.7s157,31.23,128.68,31.23c-36.17,0-70.15,6.58-131.33,6.58S153.8,364,123.83,364Z" transform="translate(0)"/><path class="cls-6" d="M305,351.17s-4-7.41-29.73-3.06c-8.56,1.45-18.13,2.87-22.59,2.87-4.25,0-19.28-1.77-26-3.55-21.48-5.64-26.27,3.1-26.27,3.1" transform="translate(0)"/><path class="cls-4" d="M143.76,353.33l-1-.27h0Z" transform="translate(0)"/><path class="cls-4" d="M405.49,352c0,13.15-14.27,23.81-31.87,23.81a42.72,42.72,0,0,1-6.47-.49c-6.58,14.35-23.78,24.58-44,24.58a56.44,56.44,0,0,1-19.24-3.32c-12,12.07-30.53,19.8-51.3,19.8s-39.27-7.73-51.3-19.79a56.68,56.68,0,0,1-19.24,3.31c-20.37,0-37.7-10.41-44.15-25a41.78,41.78,0,0,1-6.3.47c-17.6,0-31.86-10.66-31.86-23.81,0-7.08,4.14-13.42,10.7-17.78.66,2.71,2.72,5.34,6,7.84.62.47,1.28.93,2,1.4s1.53,1,2.36,1.43l.85.47c.29.16.58.32.88.47l.91.47.94.46,2,.91c.34.16.68.3,1,.45.69.3,1.41.59,2.14.88h0l1.12.44,1.14.44h0c3.31,1.22,7,2.4,10.89,3.51h0l1,.27,1,.27c.67.19,1.36.37,2,.54l2.1.53.52.13q2.94.72,6.07,1.4c1.09.24,2.2.48,3.33.7l2,.4,2,.39c8.07,1.53,16.87,2.86,26.27,4l3.61.4,2.68.28,1.74.18,4.11.39,2.64.23,3.83.31q4.41.35,9,.62l2.8.16c2.68.15,5.4.29,8.14.4,8.12.34,16.48.51,25,.51s16.9-.17,25-.51c2.74-.11,5.46-.25,8.14-.4l2.8-.16q4.54-.27,9-.62l3.83-.31,2.64-.23,4.1-.39,1.93-.19,6.11-.67c9.51-1.11,18.42-2.46,26.58-4l2.38-.46c3.05-.61,6-1.25,8.83-1.92l2.39-.58,2.1-.53c1.38-.35,2.73-.72,4.05-1.09,4-1.12,7.62-2.3,10.93-3.54a78.21,78.21,0,0,0,10-4.42c.29-.15.57-.3.84-.46q.83-.47,1.59-.93c.92-.57,1.79-1.15,2.58-1.73,3.36-2.48,5.51-5.08,6.29-7.77C401.31,338.56,405.49,344.93,405.49,352Z" transform="translate(0)"/><path class="cls-4" d="M131.85,349.53l-1.14-.44,1.12.42Z" transform="translate(0)"/><path class="cls-7" d="M206.15,298c0,1.51,0,3,0,4.52s3.82-.69,4.46-1c.88-.42,1.72-.91,2.59-1.35.44-.22.88-.35,1.34-.53a8,8,0,0,1,1-.47c.43-.11.89-.13,1.31-.26s.8-.33,1.21-.45c.9-.27,1.88-.17,2.79-.38a9.56,9.56,0,0,1,2.27.09h1.61a6.66,6.66,0,0,0,1.68-.13,6.64,6.64,0,0,1,1.67,0,7.46,7.46,0,0,1,1.43.16,5.16,5.16,0,0,0,.78.17,11.48,11.48,0,0,1,1.53.21c1.24.28,2.55-.07,3.8.17a16,16,0,0,1,2.18.34,5.52,5.52,0,0,0,1.68.12c.27,0,.56,0,.84,0s.49.22.79.31a5.66,5.66,0,0,0,1.09,0,7.55,7.55,0,0,0,1,.17c1.31,0,2.62,0,3.93,0s2.69.51,4.11.5c.8,0,1.56.17,2.35.17s1.44.17,2.18.16a28.25,28.25,0,0,1,3.68,0,3.3,3.3,0,0,0,1.21.14,6.86,6.86,0,0,1,1.11-.13,7.28,7.28,0,0,0,2-.13c1.26-.33,2.73.28,4-.07.37-.1.66-.3,1-.38.6-.13,1.22-.28,1.83-.39a11.92,11.92,0,0,0,1.68-.24c.22-.07.44-.21.67-.26s.65-.07,1-.16a8.28,8.28,0,0,0,1.51-.55,2.13,2.13,0,0,1,.7-.18,4.36,4.36,0,0,0,.85-.32c.45-.19.94-.28,1.38-.5s.87-.43,1.29-.67c1-.55,1.89-1.13,2.85-1.68a3.94,3.94,0,0,0,2-2.22c.08-.24-.06-.25.18-.48a3.19,3.19,0,0,1,1-.28c.38-.09.73-.17,1.12-.24a12.24,12.24,0,0,0,1.39-.51,8.75,8.75,0,0,1,1-.18c-.23.29-.65.3-1,.43s-.72.29-1,.46a6.65,6.65,0,0,1-1.12.65,2.09,2.09,0,0,1-1.11,0,11.35,11.35,0,0,1,1.13-.64,13.77,13.77,0,0,1,1.48-.76,7.94,7.94,0,0,0,1.21-.76,12.45,12.45,0,0,1,1.47-.71c.67-.34,1.36-.62,2-1,.4-.23.73-.58,1.15-.8a13.13,13.13,0,0,0,1.57-.84c.52-.34,1.6-.54,1.77-1.15.32-1.11-.37-2-.75-2.94-.45-1.12-.69-2.34-1.19-3.45s-1.45-.47-2.4-.33a13.58,13.58,0,0,0-2.46.5c-1.09.37-2.38.1-3.54.3a6,6,0,0,1-2.12-.12,13.76,13.76,0,0,0-2.13,0,6.58,6.58,0,0,1-1.09,0c-.44-.07-.91-.07-1.35-.16s-.87-.39-1.34-.52-.91-.16-1.37-.25c-.92-.19-1.93.16-2.83,0-.31-.06-.59-.15-.9-.21a7.85,7.85,0,0,1-1.38-.64c-.35-.15-.71-.16-1.06-.32a2.52,2.52,0,0,0-.7-.34,4,4,0,0,0-.85,0,9.69,9.69,0,0,1-1.52-.09,18.26,18.26,0,0,1-2.31-.3c-1.64-.47-3.43.24-5.09.22-1,0-1.87.12-2.83.17a6.47,6.47,0,0,0-1.16.08,11.08,11.08,0,0,1-2.51.25h-3.43a8.17,8.17,0,0,0-1.3.3c-.2,0-.4,0-.59,0a3.46,3.46,0,0,0-.75.3,6.88,6.88,0,0,1-1.09.25c-.46.1-.91.33-1.38.43s-1.11.1-1.67.22-.94.06-1.36.17a11.42,11.42,0,0,0-1.21.61,8.5,8.5,0,0,0-.82.36,10.44,10.44,0,0,1-1.82.72c-.77.29-1.51.63-2.31.85a10.29,10.29,0,0,0-2.21.75,9,9,0,0,1-1,.31c-.44.18-.58.5-.91.82s-.74.49-1.06.79a8.24,8.24,0,0,1-1.41,1.15,23.72,23.72,0,0,1-3.06,1.75,8.12,8.12,0,0,1-1.61.42c-.1,0-.22,0-.32,0a4.49,4.49,0,0,0-.71.31,17,17,0,0,0-3,1.55,17.49,17.49,0,0,1-2.63,1.72,3.2,3.2,0,0,0-1.27.79,13.8,13.8,0,0,1-2.14,1.39,12.74,12.74,0,0,0-1.51.82,4.38,4.38,0,0,1-1.42,1.11,2.34,2.34,0,0,0-.5.19c-.22.14-.35.35-.58.48-.49.27-1,.39-1.52.71s-.84.42-1.25.66a4.33,4.33,0,0,1-1.72.67" transform="translate(0)"/><path class="cls-7" d="M204.27,298c0,2.47-.93,6.8,2.66,6.94,3.33.13,7.32-3.35,10.44-4.23,5.17-1.45,10.46-.52,15.73-.18,4.66.31,9.35.67,14,1,8.72.65,17.13,1.59,25.73-.44a30.54,30.54,0,0,0,11.1-4.8c1.25-.93,1.55-1.86,2.44-3,.71-1-1.61.62-.16.55,1.2-.06,2.32-.72,3.51-.93l-1.45-3.43a10.2,10.2,0,0,1-2.8,1.35l.45,3.43c2.81-1.59,5.66-3.09,8.46-4.67,1.56-.88,3.68-1.46,4.23-3.36s-1.21-6.23-2.16-7.59-1.92-1.53-3.59-1.41c-2.72.19-5.27,1-8.05.9a44.61,44.61,0,0,1-7.78-1c-5.7-1.09-10.73-2.16-16.64-1.71-4.78.36-9.51.29-14.16,1.44s-10.09,2.23-14.23,4.62c-2.72,1.56-4.28,3.46-7.43,4.65a36.31,36.31,0,0,0-6,3c-4,2.36-8.33,6.2-12.81,7.44a1.87,1.87,0,0,0,1,3.61c3.24-.89,6.17-3,8.95-4.83a61,61,0,0,1,11.48-6.07c2.39-.92,3.9-2.57,5.94-3.93C235,284.15,237,283.71,239,283c4-1.52,8.27-3.05,12.57-3.33,5.2-.33,10.5-.92,15.67-.47,4.23.36,8.31,1.89,12.53,2.45a49.88,49.88,0,0,0,6.69.33c1.53,0,5.3-1.37,6.5-.86.87.36,1.51,2.19,1.47,2.92-.09,1.82-1.61,2.37-3.07,3.17-2.42,1.32-4.9,2.5-7.31,3.86-1.28.72-1.2,3.19.45,3.42,2.05.29,4-.65,5.69-1.72a1.88,1.88,0,0,0-1.44-3.43c-2.43.43-4.24.89-5.84,2.54a21.27,21.27,0,0,1-10.38,5.43c-7.74,1.92-15.61,1.62-23.53.77-7.56-.82-15.81-2-23.4-1.77-3.84.13-7.3,0-11,1.32a59.55,59.55,0,0,0-5.41,2.58c-.38.19-1.67,1.08-2,.95,1.35.55.81-2.55.81-3.08,0-2.41-3.74-2.42-3.75,0Z" transform="translate(0)"/><path class="cls-8" d="M206.65,306.41c0,.36.33.68.43,1s0,.93.1,1.38c0,.17.22.33.28.5a4.26,4.26,0,0,1,.06.5,12,12,0,0,0,.47,1.47c.56,1.47,1.13,2.9,1.74,4.34.32.74.64,1.46.9,2.23.11.36.28.67.42,1s.44.71.64,1.12c.32.69.09,1.88.83,2.26a14.63,14.63,0,0,0,1.51.44c.4.15.77.35,1.17.51a4.39,4.39,0,0,0,1.13.15c.36,0,.69.24,1,.3.7.12,1.35.25,2,.41s1.54.54,2.32.81a10.47,10.47,0,0,0,1.35.2c.52.1,1,.34,1.52.43a12,12,0,0,0,2.16,0,20.77,20.77,0,0,1,2.85.17,5.37,5.37,0,0,1,1.19.5c.43.16.86.32,1.28.5a5,5,0,0,0,2.25.17c.46,0,.88-.18,1.35-.18h1.48a7.23,7.23,0,0,0,1.68-.09,5.79,5.79,0,0,1,1-.07c.39,0,.76-.15,1.15-.18.79-.05,1.55-.3,2.35-.33a14.31,14.31,0,0,0,2.1-.52,11.78,11.78,0,0,0,2.73-.82,6.6,6.6,0,0,1,.87-.47c.32-.1.66-.11,1-.24a17.33,17.33,0,0,1,2.55-1c.43-.11.82-.26,1.24-.38a4,4,0,0,0,1.25-.41c.33-.24.57-.59.9-.84a8.9,8.9,0,0,1,1.47-1,8.69,8.69,0,0,1,1.18-.41c.44-.15.82-.46,1.24-.64.27-.12.5-.29.76-.4a3.78,3.78,0,0,1,.67-.13,7.91,7.91,0,0,0,.84-.37,6.22,6.22,0,0,0,1.36-.57c.25-.16.43-.36.68-.54s.81-.42,1.19-.67.77-.57,1.17-.84a5,5,0,0,1,1.13-.62c.54-.17.82-.51,1.33-.72l2.87-1.22c.82-.34,1.6-.74,2.44-1a11.69,11.69,0,0,1,3.16-.59,6.6,6.6,0,0,0,1.23-.21,5.89,5.89,0,0,1,1.51-.12c.85,0,1.71,0,2.56,0a7,7,0,0,1,1.2.3,7.77,7.77,0,0,0,1.6,0h3.89c.47,0,1.66.11,1.94.48-.42.18-1.16-.2-1.6-.27a9.21,9.21,0,0,0-1.17,0c-.35,0-.94,0-.52.51a3.34,3.34,0,0,0,1.52.8,11.91,11.91,0,0,0,2.85.37,8,8,0,0,1,2.43.25c.52.16,1,.3,1.55.42.17,0,.65.25.82.16s.23-.53.27-.7a7.38,7.38,0,0,0,.16-3.49c-.25-1.06.66-2,.64-3s.33-2.08.33-3.18c0-2-.09-4.06,0-6.07a5.88,5.88,0,0,1,.23-1.09c.09-.41.08-.82.16-1.24a6.78,6.78,0,0,0,.12-1.35c0-.5,0-1,0-1.49a2.15,2.15,0,0,0-.49-1.32,3,3,0,0,1-.42-.68,6,6,0,0,1-.12-.85,1.47,1.47,0,0,0-1.15-1.18c-.61-.05-.84.33-1,.81a6.6,6.6,0,0,1-1,1.72,5.12,5.12,0,0,1-1.53,1.21,12,12,0,0,1-1.29.79A12.76,12.76,0,0,0,289,294.8c-.66.56-1.38,1-2.07,1.52-.48.36-1,.74-1.53,1.05a18.41,18.41,0,0,0-1.64,1,2.15,2.15,0,0,1-.49.28c-.43.2-.78.49-1.19.73a17.82,17.82,0,0,0-1.67,1c-.54.43-1,.92-1.55,1.31a4.83,4.83,0,0,1-1.93.8,2.91,2.91,0,0,1-1.21,0c0-.25.64-.53.85-.65s.43-.21.66-.33a7.1,7.1,0,0,0,.7-.41c.28-.19.92-.44,1.07-.75a1.6,1.6,0,0,0-.63.2,7.79,7.79,0,0,0-.94.28,12.75,12.75,0,0,0-1.71,1.23,5.5,5.5,0,0,1-2.46.8,6.27,6.27,0,0,0-1.65.75,3.22,3.22,0,0,1-.5.23c-.22.05-.45,0-.67,0l-1.1.24a11.42,11.42,0,0,1-2.55.08c-.6,0-1.21,0-1.8,0-.41,0-.73.17-1.16.17a8.92,8.92,0,0,1-1.37,0,11.26,11.26,0,0,0-2-.3c-.71,0-1.43,0-2.14,0s-1.24-.32-1.88-.35c-.84,0-1.68,0-2.52,0h-1.09a12.69,12.69,0,0,1-1.93-.3c-.69-.11-1.32-.16-2-.33a5,5,0,0,0-1-.22,4,4,0,0,0-.94.17c-.5.06-1.08-.39-1.57-.54-.22-.06-.47-.21-.68-.26s-.53.08-.82.12a16.9,16.9,0,0,1-2.36,0,18.67,18.67,0,0,0-2.48.16,5.38,5.38,0,0,1-2,.09,11.45,11.45,0,0,0-1.85-.26c-.9-.06-1.81.07-2.7,0-.57,0-1.08-.18-1.66-.18-1.17,0-2.33-.35-3.51-.34-1.6,0-3.18.17-4.78.17a8.57,8.57,0,0,0-1.68,0c-.48.1-1,.25-1.51.4a16.85,16.85,0,0,0-2.09.58,5.77,5.77,0,0,1-1.34.51c-.73.15-1.45.33-2.19.46-.36.07-.71.16-1.06.21a2.11,2.11,0,0,0-.82.34c-.66.36-1.42.6-2.11.92a8.31,8.31,0,0,1-2.37,1.09" transform="translate(0)"/><path class="cls-8" d="M204.84,306.91c1.08,3.21,2,6.44,3.28,9.64s1.62,6.61,5,7.87a57.68,57.68,0,0,0,11.47,2.94c4.89.65,9.25,1.5,14.24,1.12a38.25,38.25,0,0,0,11-2.44c4.21-1.63,7.87-3.67,12-5.45,4.47-1.94,8.29-5.09,13-6.59a23.22,23.22,0,0,1,8.66-.62c2.31.14,5.3-.39,7.43.51l.5-3.69a19.49,19.49,0,0,0-3.82-.16,1.88,1.88,0,0,0-1.38,1.81c.28,4.08,8.22,4.1,11.08,4.3a1.85,1.85,0,0,0,1.62-.93c1.09-1.9.77-4.55,1-6.64.42-3.13.43-6.08.57-9.24.16-3.46,1.76-10-2.19-12.13a2.82,2.82,0,0,0-3.31.3c-1.09.94-1.23,2.23-2.51,3.24a24.45,24.45,0,0,1-3.46,1.76c-2.15,1.24-4.09,2.94-6.22,4.24-1.89,1.15-4.92,3.88-7.1,3.9l1.33,3.2c.86-.9,2.3-1.29,3.27-2.13,1.43-1.24-.09-3.67-1.82-3.13-2.46.76-4.55,2.19-7,3-3.1,1-6.46.88-9.75.73-5.34-.23-10.6-.95-15.84-1.62a52.65,52.65,0,0,0-7.32,0c-3.77.07-7.52-.63-11.27-.73-7.53-.2-13.58,2.26-20.45,4.76-2.25.82-1.28,4.44,1,3.61,7.41-2.69,13.93-5.18,22.09-4.37,5.73.57,11.45-.05,17,.92,5,.87,10.38.91,15.5,1.31a27.09,27.09,0,0,0,9.37-.64c2.68-.84,5-2.59,7.66-3.4l-1.82-3.13c-1,.87-2.34,1.15-3.27,2.13a1.89,1.89,0,0,0,1.32,3.2c3.9,0,7-3.17,10.21-5.17,2.06-1.3,3.94-2.81,6.07-4,1.68-.92,3.37-1.61,4.59-3.15,1.65-2.08-.11-1.49-.13-.94-.05,1.41.83,2.8.72,4.34-.18,2.8-.22,5.59-.37,8.4-.09,1.6-.64,3.13-.85,4.67s.1,3.09-.21,4.51c1.72-.68,1.61-1.07-.34-1.19a14.66,14.66,0,0,0-1.45-.25c-.93-.16-4.09-1.08-4,.21l-1.37,1.81c.51-.07,2.13.26,2.82.29,2.3.12,2.29-2.93.5-3.68-3.15-1.31-8.28-1-11.69-.88a31.53,31.53,0,0,0-12.82,3.8c-7,3.54-13.56,7.58-21,10.17-3.84,1.34-9.81,2.3-13.76,1.52a45.49,45.49,0,0,0-5.82-1.24,37.34,37.34,0,0,1-6.85-1.4c-1.6-.43-4-.41-5.38-1.38s-2-3.35-2.61-4.87c-1.37-3.36-2.33-6.71-3.46-10.08-.77-2.27-4.39-1.3-3.62,1Z" transform="translate(0)"/><path class="cls-9" d="M214.53,325.52c-.11.58.42.71.67,1.16a6.27,6.27,0,0,0,.66,1c.34.44.7.83,1,1.3s.78.89,1.1,1.38a7.07,7.07,0,0,0,.92,1.53,3.73,3.73,0,0,0,1.25.65c1.44.65,2.94,1.21,4.34,2-.34-.22-.79-.92-1.26-.7s.26,1,.44,1.33a5.37,5.37,0,0,0,.84,1c.16.17.27.4.44.56a2.43,2.43,0,0,0,1,.42c.47.17.88.45,1.37.59a16.86,16.86,0,0,1,1.88.53c.51.21,1.06.31,1.55.52.22.09.84.42.85.66-.4.32-1.22.16-1.7.16s-.88,0-1.32,0c0,.25,1.28.6,1.52.69.76.29,1.5.6,2.27.85a18,18,0,0,1,2.15,1,10,10,0,0,0,1.63.76c.82.23,1.7.24,2.54.41a9.1,9.1,0,0,1,1.69.5c.54.23,1.1.28,1.64.51a7.27,7.27,0,0,0,2.72.71,11.86,11.86,0,0,1,3.31.33,7.11,7.11,0,0,0,1.77.34c.53,0,1,.15,1.51.17.37,0,.76,0,1.12,0a3.05,3.05,0,0,0,.92-.32,16.65,16.65,0,0,1,2.06-.59c1.17-.26,2.48-.15,3.63-.49-.42-.17-.77.36-1,.62s-.86.63-.92.92a2.12,2.12,0,0,0,.71,0c.55,0,1.11,0,1.67,0,1.13-.06,2.23-.29,3.35-.45a11.66,11.66,0,0,0,3.62-.84c.37-.18.69-.44,1.07-.59a8.6,8.6,0,0,0,1.32-.59,11.29,11.29,0,0,1,2.5-.83c.46-.12.92-.2,1.37-.32a5.87,5.87,0,0,0,1.78-1.07c1-.71,1.78-1.72,2.89-2.34.93-.52,1.72-1.26,2.67-1.76.56-.29,1.13-.48,1.69-.74a6.61,6.61,0,0,0,1.34-1.08c.79-.68,1.62-1.37,2.34-2.11a4.94,4.94,0,0,0,.85-1.22c.27-.55.58-1.08.83-1.64a2.8,2.8,0,0,1,.88-1.17c.37-.31.59-.68.95-1s.47-.32.69-.53.21-.32.36-.47a4.16,4.16,0,0,0,.64-.62c.17-.24.35-.51.5-.76a18.82,18.82,0,0,0,1.21-2.47,7,7,0,0,1,.89-1.45c.3-.41.33-.87.66-1.3a23.47,23.47,0,0,0,1.6-2.75c.22-.36.56-.82,0-1a2.09,2.09,0,0,0-.66,0c-.34,0-.59-.14-.91-.18a4,4,0,0,1-1-.16c-.49-.15-1-.34-1.52-.46-1.19-.29-2.46-.45-3.68-.67-.44-.08-.85-.1-1.29-.21a6.31,6.31,0,0,0-1.56-.16c-1.13,0-2.26,0-3.39,0-.35,0-.71,0-1,0s-.6.15-.93.17a11,11,0,0,0-1.82,0,6.66,6.66,0,0,0-1,.45,15,15,0,0,1-2.07.53c-.6.18-1.22.41-1.8.64a6.15,6.15,0,0,1-.88.38c-.38.09-.77.08-1.17.2-.57.18-1.13.4-1.71.59-1.1.35-2.22.67-3.31,1.05s-1.87.8-2.81,1.21c-2.16.95-3.6,3-5.57,4.25a13.67,13.67,0,0,1-1.73,1,3,3,0,0,0-1.26.66A4.71,4.71,0,0,1,252,328a11.67,11.67,0,0,1-1.32.07,18.26,18.26,0,0,0-2.34.3c-1,.17-1.91.33-2.86.55a10,10,0,0,0-1.44.32,3.53,3.53,0,0,1-.84.31c-.38.05-.8,0-1.18,0-.76.07-1.51.22-2.27.27a17.23,17.23,0,0,0-1.77.07,13.9,13.9,0,0,1-1.7.13c-.36,0-.62.18-1,.17s-.64.15-1,.17c-.77,0-1.56,0-2.34,0h-1.6a9.94,9.94,0,0,1-1.89,0,9.37,9.37,0,0,1-1.16-.29c-.19-.06-.36-.15-.54-.22a7.34,7.34,0,0,0-1-.19c-.27-.06-.54-.23-.82-.31-.63-.19-1.3-.25-1.95-.38s-1.08-.34-1.62-.47a11,11,0,0,1-1.39-.19,4.83,4.83,0,0,1-.45-.26,5.3,5.3,0,0,0-1.18-.33,14.31,14.31,0,0,1-1.44-.64,6.17,6.17,0,0,0-.62-.11,5.36,5.36,0,0,0-.79-.3" transform="translate(0)"/><path class="cls-9" d="M212.72,326c.67,2.1,2.46,3.77,3.71,5.54,1.82,2.59,4.27,3.19,7.1,4.59,1.8.9,3.95-1.44,2.27-2.94a4.44,4.44,0,0,0-2.08-1.19,1.92,1.92,0,0,0-2.12.87c-2.64,5.4,6.67,5.68,8.62,7.88l.83-3.13a13.27,13.27,0,0,1-2.52.06,1.89,1.89,0,0,0-.94,3.5c4.63,2.79,10.71,4.28,15.91,5.47,5.8,1.32,10.34.61,16-.45l-1-3.62a5.38,5.38,0,0,0-2.74,2,1.9,1.9,0,0,0,1.33,3.2,27.6,27.6,0,0,0,9.85-1.34c2.74-1,6.07-2,8.49-3.59,2.65-1.79,5.32-3.57,7.95-5.34,2.87-1.93,3.84-4.49,5.91-7,1.49-1.82,2.92-2.88,4.09-5,1.05-1.88,4.49-6.07,4.26-8.28-.15-1.45-1-1.9-2.15-2.32a40.93,40.93,0,0,0-10.58-1.87c-6.42-.41-11.95,1.48-17.95,3.56a25.84,25.84,0,0,0-8.67,4.71,44.92,44.92,0,0,1-5.86,4.23c-2.64,1.47-7.44,1.67-10.39,2.12a88.5,88.5,0,0,1-8.92.82c-5.72.27-11.79-1.64-17.1-3.64-2.26-.85-3.24,2.77-1,3.62a52.45,52.45,0,0,0,28.7,2.86c2.69-.49,5.63-.9,8.3-1.48,1.95-.43,3-1.71,4.63-2.78,1.89-1.26,3.54-2.68,5.35-4,3.23-2.42,7.23-3.08,10.95-4.3a32.08,32.08,0,0,1,18-1c.13,0,3,1.11,3.38.81,1.08.28.93-.29-.47-1.71a25.31,25.31,0,0,1-1.61,2.75c-1.29,2.26-2.22,4.72-4,6.68s-3.42,4.79-5.34,6.65c-2.21,2.14-5.07,3.21-7.53,5a30.45,30.45,0,0,1-18.32,6l1.33,3.2c.19-.22.73-1,1.07-1.05,2.37-.62,1.35-4.06-1-3.62-5.27,1-10.09,1.39-15.37.09-4.39-1.07-9.72-2.35-13.66-4.73l-.95,3.49a12.46,12.46,0,0,0,3.51-.2,1.89,1.89,0,0,0,.83-3.13,6.57,6.57,0,0,0-3.22-1.67,15.59,15.59,0,0,1-2.8-.93c-1.5-.87-1.35-2.09-2-.74l-2.12.86.43.22,2.27-3c-3.45-1.71-7.75-3.72-9.09-7.88-.73-2.29-4.35-1.31-3.61,1Z" transform="translate(0)"/><path class="cls-10" d="M206.65,294.68A10.54,10.54,0,0,1,208,289a5.41,5.41,0,0,0,.52-1.15,8.39,8.39,0,0,0,.49-1.2,8.81,8.81,0,0,1,.83-2.59,7.59,7.59,0,0,0,1-2c.15-.61.24-1.25.41-1.85.22-.78.63-1.51.91-2.27.09-.24.25-.51.32-.75s0-.63.2-1,.56-.55.85-.87a7.34,7.34,0,0,1,.91-.94,13.91,13.91,0,0,0,1.05-1.12c.33-.34.73-.6,1-1a5.76,5.76,0,0,0,.66-1.22c.17-.31.45-.5.64-.79a10.83,10.83,0,0,1,.53-1c.3-.36.7-.66,1-1s.61-.49.9-.77a4.68,4.68,0,0,1,.56-.53c.15-.11.25-.09.42-.23.33-.27.57-.63.9-.9s.71-.58,1.07-.92.58-.42.85-.66.52-.69.82-1,.59-.64.88-1a3,3,0,0,1,.64-.6,7.45,7.45,0,0,0,.75-.37c.69-.52,1.2-1.29,2-1.61a7.63,7.63,0,0,0,2.08-.84c.8-.61,1.72-.79,2.53-1.31l1.34-.84a3.3,3.3,0,0,1,1.51-.37,52.71,52.71,0,0,0,5.2-1.31c.75-.23,1.54,0,2.31-.2.34-.07.69-.19,1-.26.55-.1,1-.32,1.51-.46s.88-.3,1.33-.38a8.47,8.47,0,0,1,1.51,0c.72,0,1.38-.16,2.1-.16h8a8.23,8.23,0,0,1,2.52.8,9.57,9.57,0,0,0,1,.33,5.6,5.6,0,0,1,1.52.35c.42.22.58.72,1,.92a5,5,0,0,0,.91.28c.82.22,1.68.41,2.52.59a16.27,16.27,0,0,1,2.93.41c.51.2,1,.21,1.52.38a3.54,3.54,0,0,1,.93.33c.14.1.19.26.31.38a5.84,5.84,0,0,0,.56.42,8.29,8.29,0,0,1,.73.84,14.7,14.7,0,0,1,1.08,1,8.18,8.18,0,0,0,1.11,1.17c.32.27.73.31,1.05.57a6.94,6.94,0,0,0,1.21.75,5.89,5.89,0,0,1,.88.68,14,14,0,0,0,1.4.84,18,18,0,0,1,2,1.5,10.91,10.91,0,0,1,1.84,1.88,8.66,8.66,0,0,0,.7,1c.35.38.73.82,1,1.22s.38.65.59,1c.38.55.81,1.07,1.21,1.62s.63,1.05,1,1.58.67.72,1,1.11a9.58,9.58,0,0,1,.9,1.22c.25.49,0,.63-.51.65-1,0-2-.37-3-.35H287.6c-.8,0-1.54-.17-2.35-.17a46.62,46.62,0,0,1-6-.18,6.25,6.25,0,0,1-1-.32,7.76,7.76,0,0,0-1.06-.16c-.37-.06-.7-.23-1.08-.31s-1-.07-1.5-.16c-.89-.18-1.8-.17-2.69-.34-.41-.08-.81,0-1.21-.07a5.82,5.82,0,0,1-1.35-.46,5.15,5.15,0,0,0-2.47-.85h-2.68a4.82,4.82,0,0,0-.76,0c-.32,0-.58.23-.91.3a12.46,12.46,0,0,0-1.37.14,10.45,10.45,0,0,1-1.44.36c-.72.14-1.51-.11-2.23,0-.22.05-.44.16-.66.22-.54.15-1,.2-1.6.38-1.06.34-2.2.4-3.27.67a7.15,7.15,0,0,1-1.67.08,25.45,25.45,0,0,0-4.61.54,14.23,14.23,0,0,0-2.78,1,2.68,2.68,0,0,1-.75.13c-.44.06-.82.3-1.25.33-.63,0-1.2.25-1.84.33-.36,0-.68.15-1,.17a8.42,8.42,0,0,0-1.81.07A10,10,0,0,0,234,280a5.18,5.18,0,0,1-1,.36,9.11,9.11,0,0,0-1.43.72c-1.05.61-2,1.35-3,2-.53.31-1.08.58-1.61.88a6.35,6.35,0,0,0-1,.53c-.12.1-.28.35-.41.47s-.29.23-.41.33a3.93,3.93,0,0,1-.84.55c-.71.33-1.46.54-2.19.84s-1.51.3-2.16.64c-.24.12-.45.42-.68.57a7.46,7.46,0,0,0-.87.6c-.22.2-.39.52-.64.68s-.48.19-.71.31a19.82,19.82,0,0,1-2,1c-.34.12-.74.13-1.09.24-.66.2-1.13.65-1.76.88a4,4,0,0,0-.84.38c-.39.25-.71.53-1.1.81s-.74.51-1.12.74c-.53.33-1,.42-1.31,1" transform="translate(0)"/><path class="cls-10" d="M208.52,294.68c.2-4.93,3.36-11.17,5.26-15.73a14.56,14.56,0,0,1,3-4.28c1.54-1.72,2.74-3.71,4.36-5.37a47.78,47.78,0,0,1,9.58-8c4.58-2.65,8.85-3.37,13.91-4.53S255.79,254.6,261,256a31.88,31.88,0,0,1,4.14,1.86c2,.84,4.26.78,6.36,1.28,2.41.56,3,1.88,4.86,3.47,1.68,1.44,3.66,2.44,5.47,3.72a24.51,24.51,0,0,1,5.47,5.89c.71,1,3.77,4.08,3.82,5.09l1.38-1.81c-2,.54-5.12-.36-7.26-.43a41.39,41.39,0,0,1-7.1-.52c-3.65-.73-7.43-1.81-11.08-2.3-3.18-.43-7,.31-10.14.86-4.43.8-9.13,1.16-13.45,2.43-3.43,1-7,1.07-10.18,2.65-3.7,1.82-7,4.54-10.64,6.3-1.25.61-2.68.71-3.89,1.39s-2.3,1.87-3.68,2.52c-3,1.4-6.24,2.32-8.59,4.81-1.66,1.76,1,4.42,2.65,2.66,2.4-2.55,5.9-3.06,8.8-4.74,1.07-.63,2-1.52,3.06-2.1,1.31-.68,2.88-.82,4.19-1.54,3.32-1.83,6.19-4.32,9.73-5.82,3.1-1.31,6.73-1.65,10-2.64,4.36-1.29,9.61-1.64,14.15-2.25,1.64-.23,3.39-.75,5-.81,2.26-.09,4.12.83,6.25,1.27a71.22,71.22,0,0,0,11.08,1.56c2,.08,4.08.08,6.13.18,1.87.1,4.11.62,5.91.14a1.9,1.9,0,0,0,1.37-1.81c-.11-2-2-3.86-3.13-5.36a50.47,50.47,0,0,0-4.69-6.18,39,39,0,0,0-5.6-4.2c-2.16-1.49-3.87-3.8-6-5.15s-5.32-.85-7.72-1.75c-1.76-.65-3.18-1.48-5.06-2a34.09,34.09,0,0,0-17.17,0c-6,1.52-11.27,2.26-16.77,5.37-3.73,2.1-6.57,5.43-9.73,8.28-2.29,2.07-3.74,4.59-5.84,6.87a11.84,11.84,0,0,0-3.06,5c-1.79,5.41-5.05,10.71-5.29,16.5-.09,2.41,3.66,2.41,3.75,0Z" transform="translate(0)"/><circle class="cls-11" cx="252.64" cy="299.83" r="47.67"/><path class="cls-11" d="M295,277.85c-8,2.72-20.55-.81-29.59-1.59-23.47-2-44,11.54-60.32,20.87" transform="translate(0)"/><path class="cls-11" d="M205.27,305.21c16.34-9.33,36.13-2.28,59.68-3,15.21-.43,25.7-12.17,33.71-14.89" transform="translate(0)"/><path class="cls-11" d="M211,323.08c18.45,8,30.78,5.41,39,2.87,8.61-2.68,15.66-10.7,29.51-12.5,5-.65,15.23,2.17,17.86,2.88" transform="translate(0)"/></g></svg>